<svg width="113" height="23" viewBox="0 0 113 23" fill="none" xmlns="http://www.w3.org/2000/svg">
<path d="M18.1091 5.39542H15.4269C15.08 2.3575 12.5573 0 9.5 0C6.44274 0 3.91066 2.3575 3.55429 5.39542H0.88154C0.39388 5.39542 0 5.78833 0 6.28667V22.0992C0 22.5975 0.39388 23 0.88154 23H18.1185C18.6061 23 19 22.5975 19 22.0992V6.28667C18.9906 5.78833 18.5967 5.39542 18.1091 5.39542ZM9.5 1.80167C11.5913 1.80167 13.3263 3.35417 13.6639 5.39542H5.33613C5.67374 3.35417 7.40869 1.80167 9.5 1.80167Z" fill="#007AFF"/>
<path d="M49.1091 5.39542H46.4269C46.08 2.3575 43.5573 0 40.5 0C37.4427 0 34.9107 2.3575 34.5543 5.39542H31.8815C31.3939 5.39542 31 5.78833 31 6.28667V22.0992C31 22.5975 31.3939 23 31.8815 23H49.1185C49.6061 23 50 22.5975 50 22.0992V6.28667C49.9906 5.78833 49.5967 5.39542 49.1091 5.39542ZM40.5 1.80167C42.5913 1.80167 44.3263 3.35417 44.6639 5.39542H36.3361C36.6737 3.35417 38.4087 1.80167 40.5 1.80167Z" fill="#A3A3A3"/>
<path fill-rule="evenodd" clip-rule="evenodd" d="M71.7091 22.8857C90.1631 10.6679 77.7267 0.420762 71.7091 7.12084C65.6915 0.420762 53.2551 10.6679 71.7091 22.8857Z" fill="#FE303C"/>
<path fill-rule="evenodd" clip-rule="evenodd" d="M102.709 22.8857C121.163 10.6679 108.727 0.420762 102.709 7.12084C96.6915 0.420762 84.2551 10.6679 102.709 22.8857Z" fill="#A3A3A3"/>
</svg>
