<svg width="77" height="53" viewBox="0 0 77 53" fill="none" xmlns="http://www.w3.org/2000/svg">
<path d="M71.0995 52.0135C67.4986 52.0135 65.3628 50.1708 65.1994 47.5166H68.6425C68.6425 48.4013 69.1328 49.5791 71.2629 49.6523C72.7394 49.6523 73.5565 48.7676 73.5565 48.1026C73.3931 47.0714 72.0801 46.9981 70.7727 46.7727C69.2962 46.5586 68.1523 46.2599 67.3295 45.8936C66.1856 45.3019 65.5262 44.0452 65.5262 42.7209C65.5262 40.3597 67.4986 38.517 70.9361 38.517C74.2158 38.517 76.346 40.2132 76.5038 42.7942H73.2297C73.2297 42.1349 73.0662 41.0247 71.0995 41.0247C69.7865 41.0247 68.9694 41.2445 68.806 42.2025C68.806 43.5324 71.5898 43.4591 73.7199 43.972C75.6866 44.4904 76.9997 45.7414 76.9997 47.5166C76.9997 50.7625 74.3793 52.0135 71.0995 52.0135Z" fill="white"/>
<path d="M8.3571 30.2362L19.6615 23.6711L25.725 34.0739H10.4872" fill="white"/>
<path fill-rule="evenodd" clip-rule="evenodd" d="M30.4748 38.4925V51.6227H33.7827V38.4925H30.4748Z" fill="white"/>
<path d="M3.11068 45.2515C3.11068 47.314 4.91397 49.0102 6.87504 49.0102C9.01081 49.0102 10.645 47.314 10.645 45.2515C10.645 43.2623 9.01081 41.4928 6.87504 41.4928C4.91397 41.4928 3.11068 43.2623 3.11068 45.2515ZM6.71162 52.0364C3.11068 52.0364 0 49.0102 0 45.2515C0 41.4928 3.11068 38.5399 6.71162 38.5399C8.18806 38.5399 9.50108 38.9118 10.645 39.7177V38.6864H13.9248V51.7377H10.645V50.9262C9.66451 51.6645 8.18806 52.0364 6.71162 52.0364Z" fill="white"/>
<path d="M50.4654 34.0709L34.7373 6.63836L46.0417 -2.68183e-06L65.7032 34.0709" fill="white"/>
<path d="M18.1851 45.2512C18.1851 47.3137 19.825 49.0099 21.9551 49.0099C23.9162 49.0099 25.7251 47.3137 25.7251 45.2512C25.7251 43.262 23.9162 41.4925 21.9551 41.4925C19.825 41.4925 18.1851 43.262 18.1851 45.2512ZM21.7917 52.0361C18.0217 52.0361 15.0744 49.0099 15.0744 45.2512C15.0744 41.4925 18.0217 38.5396 21.7917 38.5396C23.2625 38.5396 24.5755 38.9115 25.7251 39.7174V34.1892H28.9992V51.7374H25.7251V50.9259C24.5755 51.6642 23.2625 52.0361 21.7917 52.0361Z" fill="white"/>
<path d="M21.6297 18.5112L33.0975 12.025L45.7149 34.0702H33.7512V37.3161H30.4771V34.0702" fill="white"/>
<path d="M74.8662 37.4183C74.0479 37.4183 73.2353 36.6841 73.2353 35.8042C73.2353 34.9243 74.0479 34.1901 74.8662 34.1901C75.8414 34.1901 76.4971 34.9243 76.4971 35.8042C76.4971 36.6841 75.8414 37.4183 74.8662 37.4183ZM74.8662 34.4142C74.0479 34.4142 73.5603 35.07 73.5603 35.8042C73.5603 36.5384 74.0479 37.1997 74.8662 37.1997C75.6788 37.1997 76.1664 36.5384 76.1664 35.8042C76.1664 35.07 75.6788 34.4142 74.8662 34.4142Z" fill="white"/>
<path d="M75.2082 36.6858L74.8831 35.9516H74.558V36.6858H74.3114V34.9259H75.0456C75.2082 34.9259 75.5332 35.1501 75.5332 35.4416C75.5332 35.733 75.3707 35.8787 75.2082 35.9516L75.5332 36.6858H75.2082ZM74.8831 35.1501H74.558V35.733H74.8831C75.2082 35.733 75.2082 35.6601 75.2082 35.4416C75.2082 35.2902 75.2082 35.1501 74.8831 35.1501Z" fill="white"/>
<path d="M53.2355 45.2512C53.2355 47.3137 54.8754 49.0099 57.0055 49.0099C58.9722 49.0099 60.7699 47.3137 60.7699 45.2512C60.7699 43.262 58.9722 41.4925 57.0055 41.4925C54.8754 41.4925 53.2355 43.262 53.2355 45.2512ZM56.8364 52.0361C53.0721 52.0361 50.1248 49.0099 50.1248 45.2512C50.1248 41.4925 53.0721 38.5396 56.8364 38.5396C58.3129 38.5396 59.6259 38.9115 60.7699 39.7174V38.6861H63.8862V51.7374H60.7699V50.9259C59.6259 51.6642 58.3129 52.0361 56.8364 52.0361Z" fill="white"/>
<path d="M38.173 45.2512C38.173 47.3137 39.9763 49.0099 41.943 49.0099C44.0732 49.0099 45.713 47.3137 45.713 45.2512C45.713 43.262 44.0732 41.4925 41.943 41.4925C39.9763 41.4925 38.173 43.262 38.173 45.2512ZM45.713 34.1892H48.9871V51.7374H45.713V50.9259C44.7269 51.6642 43.4138 52.0361 41.943 52.0361C38.173 52.0361 35.0623 49.0099 35.0623 45.2512C35.0623 41.4925 38.173 38.5396 41.943 38.5396C43.4138 38.5396 44.7269 38.9115 45.713 39.7174V34.1892Z" fill="white"/>
</svg>
