<svg width="77" height="25" viewBox="0 0 77 25" fill="none" xmlns="http://www.w3.org/2000/svg">
<path d="M7.76952 17.7305C6.3437 17.7305 5.65901 16.634 6.01547 15.3649C6.75495 12.7358 11.5046 8.83922 14.7409 8.83922C17.1038 8.83922 16.9222 10.9508 15.539 12.7529L14.7741 13.5987C12.0304 16.292 9.48649 17.7305 7.76952 17.7305ZM19.3388 0C15.208 0.00166047 10.6577 2.52889 7.80218 4.92273L8.02745 5.24929C12.4605 2.14145 18.6138 0.119554 20.3102 3.15157C21.2058 4.75171 19.6848 7.98131 17.5438 10.5351C18.0575 9.4071 17.7187 7.24241 14.7337 7.24241C9.76933 7.24185 0 13.8173 0 20.545C0 23.241 1.86918 25 4.94832 25C13.1927 25 24.3746 11.486 24.3746 4.69857C24.3741 2.30141 22.9947 0 19.3388 0ZM29.9523 17.7305C29.4735 17.7305 29.0738 17.5617 28.8242 17.2578C28.5635 16.9368 28.486 16.4835 28.61 16.0135C28.8829 14.9946 29.9805 14.197 31.108 14.197H33.7604L32.8139 17.731L29.9523 17.7305ZM37.5795 7.13448C36.8196 6.20129 35.5924 5.78452 34.7124 5.78452H29.8903L29.0716 8.83701H33.6187L34.0537 8.88295C34.0587 8.88295 34.4727 8.9311 34.7013 9.24161C34.8884 9.50009 34.915 9.88587 34.7816 10.3901L34.5663 11.1927H31.7019C29.2355 11.1927 25.7982 12.9611 25.0327 15.8187C24.6514 17.244 24.9851 18.4782 25.7257 19.3854C26.4608 20.2854 27.8462 20.7808 29.344 20.7808H31.9969L31.9958 20.7819H35.3688L36.9502 14.875L38.1148 10.5329C38.572 8.8276 38.0766 7.74276 37.5795 7.13448ZM70.6989 5.78452C69.3949 5.78452 68.1838 6.1703 67.1969 6.90146C66.2017 7.6387 65.6526 8.52539 65.3255 9.74639C64.6165 12.3932 66.6954 13.6706 68.3687 14.5756C69.567 15.2259 70.6026 15.7861 70.3796 16.6163C70.2201 17.2124 69.9606 17.7332 68.4855 17.7332H63.9833L63.1658 20.7863H68.1484C69.4845 20.7863 70.7183 20.5073 71.7118 19.7446C72.7076 18.9797 73.2683 17.9126 73.617 16.6113C73.9502 15.3721 73.7238 14.1892 72.9279 13.3053C72.2642 12.5653 71.3072 12.05 70.4653 11.595C69.3866 11.0139 68.3692 10.4659 68.5475 9.80119C68.6548 9.40046 69.0556 8.83922 69.9262 8.83922H74.3044L75.1231 5.78673H70.6978V5.78452H70.6989ZM44.5697 5.78452C43.2657 5.78452 42.054 6.1703 41.0677 6.90146C40.0725 7.6387 39.524 8.52539 39.1946 9.74639C38.4856 12.3932 40.5668 13.6706 42.2384 14.5756C43.4372 15.2259 44.4734 15.7861 44.2503 16.6163C44.0904 17.2124 43.8308 17.7332 42.3552 17.7332H37.8546L37.036 20.7863H42.0192C43.3564 20.7863 44.5902 20.5073 45.5826 19.7446C46.5789 18.9797 47.1396 17.9126 47.4878 16.6113C47.821 15.3721 47.5941 14.1892 46.7998 13.3053C46.1367 12.5653 45.1786 12.05 44.335 11.595C43.2574 11.0139 42.24 10.4659 42.4188 9.80119C42.5256 9.40046 42.9269 8.83922 43.7959 8.83922H48.173L48.9922 5.78673H44.5692L44.5697 5.78452ZM51.3695 5.78452L47.4612 20.7835H50.7629L54.6689 5.78452H51.3695ZM63.4547 5.78452C57.6418 5.80555 54.6003 9.67721 53.6333 13.2837C52.4881 17.5606 54.7647 20.7841 58.9281 20.7841H61.7189L62.5364 17.731H59.7473C58.1887 17.731 56.0455 16.5039 56.9095 13.2837C57.5953 10.7233 60.0899 8.83701 62.8303 8.83701H64.601L65.4196 5.78452H63.4547ZM74.8923 20.0977H75.1806V19.4491H75.4103C75.5648 19.4491 75.6727 19.4657 75.7319 19.5011C75.836 19.5625 75.8891 19.6893 75.8891 19.8797V20.0108L75.8941 20.0634C75.8963 20.0712 75.8969 20.0767 75.8991 20.0828L75.903 20.0977H76.1747L76.1648 20.0778C76.1554 20.0502 76.1506 20.0212 76.1504 19.992C76.1473 19.9511 76.1458 19.9102 76.146 19.8692V19.7485C76.1428 19.6564 76.1118 19.5674 76.0568 19.4933C75.9971 19.4059 75.9019 19.3522 75.7723 19.3312C75.8736 19.3157 75.9539 19.2908 76.0114 19.2509C76.1194 19.1812 76.1725 19.0743 76.172 18.926C76.1725 18.7196 76.0878 18.5806 75.9179 18.5092C75.8221 18.4705 75.6727 18.4517 75.4679 18.4517H74.8923V20.0977ZM75.7192 19.2105C75.6594 19.2343 75.567 19.247 75.4441 19.247H75.1812V18.6509H75.4281C75.5891 18.6509 75.7065 18.6703 75.7795 18.7113C75.8531 18.7522 75.8897 18.8325 75.8897 18.9526C75.8897 19.0793 75.8327 19.1651 75.7192 19.2105ZM76.5605 18.2209C76.4217 18.0797 76.2557 17.9682 76.0726 17.8932C75.8894 17.8181 75.6929 17.781 75.495 17.7842C75.0838 17.7842 74.7301 17.9303 74.4378 18.2209C74.2965 18.3579 74.1847 18.5225 74.1094 18.7044C74.0341 18.8863 73.9969 19.0817 74 19.2786C74 19.6959 74.145 20.0513 74.4351 20.3435C74.7262 20.6368 75.0805 20.7841 75.4961 20.7841C75.9118 20.7841 76.2666 20.6368 76.5594 20.3435C76.8528 20.0496 77 19.6948 77 19.2786C77 18.8651 76.8533 18.512 76.5605 18.2209ZM76.41 18.3664C76.6624 18.6183 76.788 18.9227 76.788 19.278C76.788 19.6378 76.6624 19.9439 76.41 20.1974C76.1603 20.4509 75.8554 20.5782 75.4972 20.5782C75.1391 20.5782 74.8353 20.4514 74.5829 20.1974C74.4617 20.0773 74.366 19.934 74.3017 19.776C74.2374 19.618 74.2058 19.4486 74.2087 19.278C74.2087 18.9216 74.3349 18.6183 74.5845 18.3664C74.7024 18.2441 74.8441 18.1472 75.0009 18.0818C75.1577 18.0164 75.3263 17.9839 75.4961 17.9862C75.6664 17.9836 75.8353 18.0161 75.9925 18.0815C76.1497 18.1469 76.2918 18.2439 76.41 18.3664Z" fill="white"/>
</svg>
