<svg width="50" height="41" viewBox="0 0 50 41" fill="none" xmlns="http://www.w3.org/2000/svg">
<path d="M6.91691 34.8066H6.05266V38H5.11516V30.8906H6.05266V34.0254H6.78508L9.27043 30.8906H10.4374L7.72258 34.3379L10.6376 38H9.49016L6.91691 34.8066ZM11.0994 35.3096C11.0994 34.792 11.2003 34.3265 11.4021 33.9131C11.6072 33.4997 11.8904 33.1807 12.2518 32.9561C12.6163 32.7314 13.0314 32.6191 13.4969 32.6191C14.2163 32.6191 14.7973 32.8682 15.24 33.3662C15.686 33.8643 15.909 34.5267 15.909 35.3535V35.417C15.909 35.9313 15.8097 36.3936 15.6111 36.8037C15.4158 37.2106 15.1342 37.528 14.7664 37.7559C14.4018 37.9837 13.9819 38.0977 13.5066 38.0977C12.7905 38.0977 12.2094 37.8486 11.7635 37.3506C11.3208 36.8525 11.0994 36.1934 11.0994 35.373V35.3096ZM12.0076 35.417C12.0076 36.0029 12.1427 36.4733 12.4129 36.8281C12.6863 37.1829 13.0509 37.3604 13.5066 37.3604C13.9656 37.3604 14.3302 37.1813 14.6004 36.8232C14.8706 36.4619 15.0057 35.9574 15.0057 35.3096C15.0057 34.7301 14.8673 34.2614 14.5906 33.9033C14.3172 33.542 13.9526 33.3613 13.4969 33.3613C13.0509 33.3613 12.6912 33.5387 12.4178 33.8936C12.1443 34.2484 12.0076 34.7562 12.0076 35.417ZM21.6247 35.417C21.6247 36.221 21.4408 36.8688 21.0729 37.3604C20.7051 37.8519 20.207 38.0977 19.5788 38.0977C18.9375 38.0977 18.433 37.8942 18.0651 37.4873V40.0312H17.1618V32.7168H17.987L18.0309 33.3027C18.3988 32.847 18.9098 32.6191 19.5641 32.6191C20.1989 32.6191 20.7002 32.8584 21.068 33.3369C21.4391 33.8154 21.6247 34.4811 21.6247 35.334V35.417ZM20.7214 35.3145C20.7214 34.7188 20.5944 34.2484 20.3405 33.9033C20.0866 33.5583 19.7383 33.3857 19.2956 33.3857C18.7487 33.3857 18.3386 33.6283 18.0651 34.1133V36.6377C18.3353 37.1195 18.7487 37.3604 19.3054 37.3604C19.7383 37.3604 20.0817 37.1895 20.3356 36.8477C20.5928 36.5026 20.7214 35.9915 20.7214 35.3145ZM25.8023 34.1621C25.8023 33.9147 25.7079 33.7194 25.5191 33.5762C25.3303 33.4297 25.0715 33.3564 24.7427 33.3564C24.4237 33.3564 24.1568 33.4395 23.942 33.6055C23.7304 33.7715 23.6246 33.9668 23.6246 34.1914H22.7261C22.7261 33.7324 22.9182 33.3564 23.3023 33.0635C23.6864 32.7705 24.1666 32.624 24.7427 32.624C25.3612 32.624 25.843 32.7575 26.188 33.0244C26.5331 33.2881 26.7056 33.6657 26.7056 34.1572C26.7056 34.3949 26.634 34.613 26.4908 34.8115C26.3476 35.0101 26.1441 35.168 25.8804 35.2852C26.4957 35.4935 26.8033 35.9036 26.8033 36.5156C26.8033 37.0007 26.6161 37.3848 26.2418 37.668C25.8674 37.9512 25.3677 38.0928 24.7427 38.0928C24.134 38.0928 23.6311 37.9447 23.2339 37.6484C22.8401 37.349 22.6431 36.9453 22.6431 36.4375H23.5416C23.5416 36.6947 23.6555 36.916 23.8834 37.1016C24.1145 37.2839 24.4009 37.375 24.7427 37.375C25.0878 37.375 25.3661 37.2952 25.5777 37.1357C25.7893 36.9762 25.8951 36.7695 25.8951 36.5156C25.8951 36.2194 25.8056 36.0078 25.6265 35.8809C25.4507 35.7507 25.1757 35.6855 24.8013 35.6855H23.898V34.9238H24.8795C25.4947 34.9076 25.8023 34.6536 25.8023 34.1621ZM31.5131 32.7168H32.4164V38H31.5131V34.1475L29.0766 38H28.1733V32.7168H29.0766V36.5742L31.5131 32.7168ZM38.303 38H37.3997V35.7441H34.973V38H34.0648V32.7168H34.973V35.0068H37.3997V32.7168H38.303V38ZM43.1398 38C43.0878 37.8958 43.0454 37.7103 43.0129 37.4434C42.593 37.8796 42.0917 38.0977 41.509 38.0977C40.9882 38.0977 40.5601 37.9512 40.2248 37.6582C39.8928 37.362 39.7268 36.9876 39.7268 36.5352C39.7268 35.985 39.9351 35.5586 40.3518 35.2559C40.7717 34.9499 41.3609 34.7969 42.1193 34.7969H42.9982V34.3818C42.9982 34.0661 42.9038 33.8154 42.715 33.6299C42.5262 33.4411 42.2479 33.3467 41.8801 33.3467C41.5578 33.3467 41.2876 33.4281 41.0695 33.5908C40.8514 33.7536 40.7424 33.9505 40.7424 34.1816H39.8342C39.8342 33.918 39.927 33.6641 40.1125 33.4199C40.3013 33.1725 40.5552 32.9772 40.8742 32.834C41.1965 32.6908 41.5497 32.6191 41.9338 32.6191C42.5425 32.6191 43.0194 32.7721 43.3645 33.0781C43.7095 33.3809 43.8885 33.7992 43.9016 34.333V36.7646C43.9016 37.2497 43.9634 37.6354 44.0871 37.9219V38H43.1398ZM41.6408 37.3115C41.924 37.3115 42.1926 37.2383 42.4465 37.0918C42.7004 36.9453 42.8843 36.7549 42.9982 36.5205V35.4365H42.2902C41.1835 35.4365 40.6301 35.7604 40.6301 36.4082C40.6301 36.6914 40.7245 36.9128 40.9133 37.0723C41.1021 37.2318 41.3446 37.3115 41.6408 37.3115Z" fill="#A3A3A3"/>
<path d="M34.25 6.5625V23.0625C34.25 23.5803 33.8303 24 33.3125 24C32.7947 24 32.375 23.5803 32.375 23.0625V7.5H30.5V10.3125C30.5 10.8303 30.0803 11.25 29.5625 11.25C29.0447 11.25 28.625 10.8303 28.625 10.3125V7.5H19.625V10.3125C19.625 10.8303 19.2053 11.25 18.6875 11.25C18.1697 11.25 17.75 10.8303 17.75 10.3125V7.5H15.875V22.125H33.3125C33.8303 22.125 33.3125 22.5447 33.3125 23.0625C33.3125 23.5803 33.8303 24 33.3125 24H14.9375C14.4197 24 14 23.5803 14 23.0625V6.5625C14 6.04472 14.4197 5.625 14.9375 5.625H17.7943C18.1668 2.46202 20.8636 0 24.125 0C27.3864 0 30.0832 2.46202 30.4557 5.625H33.3125C33.8303 5.625 34.25 6.04472 34.25 6.5625ZM28.5621 5.625C28.204 3.49945 26.3508 1.875 24.125 1.875C21.8992 1.875 20.046 3.49945 19.6879 5.625H28.5621Z" fill="#A3A3A3"/>
<path d="M15 7H33V23H15V7Z" fill="#A3A3A3"/>
</svg>
