<svg width="50" height="41" viewBox="0 0 50 41" fill="none" xmlns="http://www.w3.org/2000/svg">
<path d="M8.43254 34.8066H7.56828V38H6.63078V30.8906H7.56828V34.0254H8.3007L10.7861 30.8906H11.953L9.2382 34.3379L12.1532 38H11.0058L8.43254 34.8066ZM16.2527 38C16.2007 37.8958 16.1583 37.7103 16.1258 37.4434C15.7059 37.8796 15.2046 38.0977 14.6219 38.0977C14.101 38.0977 13.673 37.9512 13.3377 37.6582C13.0057 37.362 12.8396 36.9876 12.8396 36.5352C12.8396 35.985 13.048 35.5586 13.4646 35.2559C13.8846 34.9499 14.4738 34.7969 15.2322 34.7969H16.1111V34.3818C16.1111 34.0661 16.0167 33.8154 15.8279 33.6299C15.6391 33.4411 15.3608 33.3467 14.993 33.3467C14.6707 33.3467 14.4005 33.4281 14.1824 33.5908C13.9643 33.7536 13.8553 33.9505 13.8553 34.1816H12.9471C12.9471 33.918 13.0398 33.6641 13.2254 33.4199C13.4142 33.1725 13.6681 32.9772 13.9871 32.834C14.3094 32.6908 14.6626 32.6191 15.0467 32.6191C15.6554 32.6191 16.1323 32.7721 16.4773 33.0781C16.8224 33.3809 17.0014 33.7992 17.0145 34.333V36.7646C17.0145 37.2497 17.0763 37.6354 17.2 37.9219V38H16.2527ZM14.7537 37.3115C15.0369 37.3115 15.3055 37.2383 15.5594 37.0918C15.8133 36.9453 15.9972 36.7549 16.1111 36.5205V35.4365H15.4031C14.2964 35.4365 13.743 35.7604 13.743 36.4082C13.743 36.6914 13.8374 36.9128 14.0262 37.0723C14.215 37.2318 14.4575 37.3115 14.7537 37.3115ZM22.3981 33.4492H20.6257V38H19.7223V33.4492H17.9841V32.7168H22.3981V33.4492ZM26.5806 38C26.5285 37.8958 26.4862 37.7103 26.4537 37.4434C26.0338 37.8796 25.5324 38.0977 24.9498 38.0977C24.4289 38.0977 24.0009 37.9512 23.6656 37.6582C23.3336 37.362 23.1675 36.9876 23.1675 36.5352C23.1675 35.985 23.3759 35.5586 23.7925 35.2559C24.2125 34.9499 24.8017 34.7969 25.5601 34.7969H26.439V34.3818C26.439 34.0661 26.3446 33.8154 26.1558 33.6299C25.967 33.4411 25.6887 33.3467 25.3209 33.3467C24.9986 33.3467 24.7284 33.4281 24.5103 33.5908C24.2922 33.7536 24.1832 33.9505 24.1832 34.1816H23.275C23.275 33.918 23.3677 33.6641 23.5533 33.4199C23.7421 33.1725 23.996 32.9772 24.315 32.834C24.6373 32.6908 24.9905 32.6191 25.3746 32.6191C25.9833 32.6191 26.4602 32.7721 26.8052 33.0781C27.1503 33.3809 27.3293 33.7992 27.3423 34.333V36.7646C27.3423 37.2497 27.4042 37.6354 27.5279 37.9219V38H26.5806ZM25.0816 37.3115C25.3648 37.3115 25.6334 37.2383 25.8873 37.0918C26.1412 36.9453 26.3251 36.7549 26.439 36.5205V35.4365H25.731C24.6242 35.4365 24.0709 35.7604 24.0709 36.4082C24.0709 36.6914 24.1653 36.9128 24.3541 37.0723C24.5429 37.2318 24.7854 37.3115 25.0816 37.3115ZM33.2094 32.7168V38H32.3012V33.4639H30.5043L30.3969 35.4414C30.3383 36.3496 30.1853 36.999 29.9379 37.3896C29.6938 37.7803 29.3048 37.9837 28.7709 38H28.4096V37.2041L28.6684 37.1846C28.9614 37.152 29.1713 36.9827 29.2983 36.6768C29.4252 36.3708 29.5066 35.8044 29.5424 34.9775L29.6401 32.7168H33.2094ZM34.5404 35.3096C34.5404 34.792 34.6413 34.3265 34.8431 33.9131C35.0482 33.4997 35.3314 33.1807 35.6927 32.9561C36.0573 32.7314 36.4723 32.6191 36.9378 32.6191C37.6572 32.6191 38.2383 32.8682 38.681 33.3662C39.1269 33.8643 39.3499 34.5267 39.3499 35.3535V35.417C39.3499 35.9313 39.2506 36.3936 39.0521 36.8037C38.8568 37.2106 38.5752 37.528 38.2073 37.7559C37.8428 37.9837 37.4228 38.0977 36.9476 38.0977C36.2314 38.0977 35.6504 37.8486 35.2044 37.3506C34.7617 36.8525 34.5404 36.1934 34.5404 35.373V35.3096ZM35.4486 35.417C35.4486 36.0029 35.5836 36.4733 35.8538 36.8281C36.1273 37.1829 36.4918 37.3604 36.9476 37.3604C37.4066 37.3604 37.7711 37.1813 38.0413 36.8232C38.3115 36.4619 38.4466 35.9574 38.4466 35.3096C38.4466 34.7301 38.3083 34.2614 38.0316 33.9033C37.7581 33.542 37.3935 33.3613 36.9378 33.3613C36.4918 33.3613 36.1321 33.5387 35.8587 33.8936C35.5853 34.2484 35.4486 34.7562 35.4486 35.417ZM44.0158 33.4639H41.5793V38H40.6711V32.7168H44.0158V33.4639Z" fill="#007AFF"/>
<path fill-rule="evenodd" clip-rule="evenodd" d="M33 0H17V1H33V0ZM16 2H34V3H16V2ZM15 4H35V24H15V4Z" fill="#007AFF"/>
</svg>
