<svg width="51" height="41" viewBox="0 0 51 41" fill="none" xmlns="http://www.w3.org/2000/svg">
<path d="M8.16941 38H7.22703V31.6621H3.72117V38H2.78367V30.8906H8.16941V38ZM9.61754 35.3096C9.61754 34.792 9.71845 34.3265 9.92027 33.9131C10.1254 33.4997 10.4086 33.1807 10.7699 32.9561C11.1345 32.7314 11.5495 32.6191 12.015 32.6191C12.7344 32.6191 13.3155 32.8682 13.7582 33.3662C14.2041 33.8643 14.4271 34.5267 14.4271 35.3535V35.417C14.4271 35.9313 14.3278 36.3936 14.1293 36.8037C13.9339 37.2106 13.6524 37.528 13.2845 37.7559C12.9199 37.9837 12.5 38.0977 12.0248 38.0977C11.3086 38.0977 10.7276 37.8486 10.2816 37.3506C9.83889 36.8525 9.61754 36.1934 9.61754 35.373V35.3096ZM10.5257 35.417C10.5257 36.0029 10.6608 36.4733 10.931 36.8281C11.2045 37.1829 11.569 37.3604 12.0248 37.3604C12.4838 37.3604 12.8483 37.1813 13.1185 36.8232C13.3887 36.4619 13.5238 35.9574 13.5238 35.3096C13.5238 34.7301 13.3854 34.2614 13.1088 33.9033C12.8353 33.542 12.4707 33.3613 12.015 33.3613C11.569 33.3613 11.2093 33.5387 10.9359 33.8936C10.6625 34.2484 10.5257 34.7562 10.5257 35.417ZM15.2844 37.2627L15.5969 36.877C15.9485 36.4212 16.1487 35.7376 16.1975 34.8262L16.2805 32.7168H19.6838V37.2627H20.3625V39.5527H19.4592V38H15.7727V39.5527H14.8694L14.8743 37.2627H15.2844ZM16.3538 37.2627H18.7805V33.5518H17.1545L17.1008 34.8115C17.0455 35.863 16.7965 36.68 16.3538 37.2627ZM23.8029 33.0195C24.4669 33.0195 24.9975 33.2425 25.3946 33.6885C25.795 34.1312 25.9952 34.7155 25.9952 35.4414V35.5244C25.9952 36.0225 25.8992 36.4684 25.7071 36.8623C25.5151 37.2529 25.2384 37.5573 24.8771 37.7754C24.519 37.9902 24.1056 38.0977 23.6368 38.0977C22.9272 38.0977 22.3559 37.8617 21.923 37.3896C21.49 36.9144 21.2736 36.278 21.2736 35.4805V35.041C21.2736 33.931 21.4786 33.0488 21.8888 32.3945C22.3022 31.7402 22.9109 31.3415 23.715 31.1982C24.1707 31.1169 24.4783 31.0176 24.6378 30.9004C24.7973 30.7832 24.8771 30.6221 24.8771 30.417H25.6193C25.6193 30.8239 25.5265 31.1413 25.3409 31.3691C25.1586 31.597 24.8657 31.7581 24.462 31.8525L23.7882 32.0039C23.2511 32.1309 22.8474 32.3457 22.5773 32.6484C22.3103 32.9479 22.1362 33.3483 22.0548 33.8496C22.5333 33.2962 23.116 33.0195 23.8029 33.0195ZM23.6271 33.7617C23.1844 33.7617 22.8328 33.9115 22.5724 34.2109C22.312 34.5072 22.1818 34.9189 22.1818 35.4463V35.5244C22.1818 36.0908 22.312 36.54 22.5724 36.8721C22.8361 37.2008 23.1909 37.3652 23.6368 37.3652C24.0861 37.3652 24.4409 37.1992 24.7013 36.8672C24.9617 36.5352 25.0919 36.0501 25.0919 35.4121C25.0919 34.9141 24.9601 34.5153 24.6964 34.2158C24.436 33.9131 24.0795 33.7617 23.6271 33.7617ZM26.8916 35.3096C26.8916 34.792 26.9925 34.3265 27.1943 33.9131C27.3994 33.4997 27.6826 33.1807 28.0439 32.9561C28.4085 32.7314 28.8236 32.6191 29.2891 32.6191C30.0085 32.6191 30.5895 32.8682 31.0322 33.3662C31.4782 33.8643 31.7012 34.5267 31.7012 35.3535V35.417C31.7012 35.9313 31.6019 36.3936 31.4033 36.8037C31.208 37.2106 30.9264 37.528 30.5586 37.7559C30.194 37.9837 29.7741 38.0977 29.2988 38.0977C28.5827 38.0977 28.0016 37.8486 27.5557 37.3506C27.113 36.8525 26.8916 36.1934 26.8916 35.373V35.3096ZM27.7998 35.417C27.7998 36.0029 27.9349 36.4733 28.2051 36.8281C28.4785 37.1829 28.8431 37.3604 29.2988 37.3604C29.7578 37.3604 30.1224 37.1813 30.3926 36.8232C30.6628 36.4619 30.7979 35.9574 30.7979 35.3096C30.7979 34.7301 30.6595 34.2614 30.3828 33.9033C30.1094 33.542 29.7448 33.3613 29.2891 33.3613C28.8431 33.3613 28.4834 33.5387 28.21 33.8936C27.9365 34.2484 27.7998 34.7562 27.7998 35.417ZM37.4169 35.417C37.4169 36.221 37.233 36.8688 36.8651 37.3604C36.4973 37.8519 35.9992 38.0977 35.371 38.0977C34.7297 38.0977 34.2251 37.8942 33.8573 37.4873V40.0312H32.954V32.7168H33.7792L33.8231 33.3027C34.191 32.847 34.702 32.6191 35.3563 32.6191C35.9911 32.6191 36.4924 32.8584 36.8602 33.3369C37.2313 33.8154 37.4169 34.4811 37.4169 35.334V35.417ZM36.5136 35.3145C36.5136 34.7188 36.3866 34.2484 36.1327 33.9033C35.8788 33.5583 35.5305 33.3857 35.0878 33.3857C34.5409 33.3857 34.1307 33.6283 33.8573 34.1133V36.6377C34.1275 37.1195 34.5409 37.3604 35.0975 37.3604C35.5305 37.3604 35.8739 37.1895 36.1278 36.8477C36.385 36.5026 36.5136 35.9915 36.5136 35.3145ZM40.3347 35.749H39.6755V38H38.7673V32.7168H39.6755V34.9531H40.2664L42.0437 32.7168H43.1375L41.0476 35.2559L43.3132 38H42.1658L40.3347 35.749ZM47.4713 38C47.4192 37.8958 47.3769 37.7103 47.3444 37.4434C46.9245 37.8796 46.4232 38.0977 45.8405 38.0977C45.3196 38.0977 44.8916 37.9512 44.5563 37.6582C44.2243 37.362 44.0582 36.9876 44.0582 36.5352C44.0582 35.985 44.2666 35.5586 44.6832 35.2559C45.1032 34.9499 45.6924 34.7969 46.4508 34.7969H47.3297V34.3818C47.3297 34.0661 47.2353 33.8154 47.0465 33.6299C46.8577 33.4411 46.5794 33.3467 46.2116 33.3467C45.8893 33.3467 45.6191 33.4281 45.401 33.5908C45.1829 33.7536 45.0739 33.9505 45.0739 34.1816H44.1657C44.1657 33.918 44.2584 33.6641 44.444 33.4199C44.6328 33.1725 44.8867 32.9772 45.2057 32.834C45.528 32.6908 45.8812 32.6191 46.2653 32.6191C46.874 32.6191 47.3509 32.7721 47.6959 33.0781C48.041 33.3809 48.22 33.7992 48.233 34.333V36.7646C48.233 37.2497 48.2949 37.6354 48.4186 37.9219V38H47.4713ZM45.9723 37.3115C46.2555 37.3115 46.5241 37.2383 46.778 37.0918C47.0319 36.9453 47.2158 36.7549 47.3297 36.5205V35.4365H46.6217C45.5149 35.4365 44.9616 35.7604 44.9616 36.4082C44.9616 36.6914 45.056 36.9128 45.2448 37.0723C45.4336 37.2318 45.6761 37.3115 45.9723 37.3115Z" fill="#A3A3A3"/>
<path d="M34.075 7.81452C30.4605 1.40323 19.8589 0 19.8589 0C19.8589 0 24.7508 5.34194 18.4992 9.56613C14.546 12.2323 12.9831 15.6968 14.6766 19.4806C15.9734 22.379 18.717 23.5597 21.6734 24C20.2605 21.3339 21.3541 18.0774 21.475 17.729C24.2379 21.9097 29.4589 17.729 26.8363 13.1855C30.2718 13.9306 30.7847 19.8919 28.1476 23.6129C32.0428 22.3887 34.6363 19.3113 35.3476 16.5677C36.0976 13.6984 35.5266 10.379 34.075 7.81452V7.81452Z" fill="#A3A3A3"/>
</svg>
