<svg width="77" height="48" viewBox="0 0 77 48" fill="none" xmlns="http://www.w3.org/2000/svg">
<path fill-rule="evenodd" clip-rule="evenodd" d="M75.7857 40.2897H76.027C76.1504 40.2897 76.2842 40.3138 76.2842 40.4713C76.2842 40.6592 76.1368 40.6675 75.9764 40.6675H75.7857V40.2897ZM75.604 41.3265H75.7857V40.8154H75.9787L76.2978 41.3265H76.4933L76.1581 40.8021C76.3322 40.7842 76.4664 40.6937 76.4664 40.4796C76.4664 40.2512 76.3357 40.1405 76.0565 40.1405H75.6037V41.3265H75.604ZM75.1669 40.7288C75.1669 40.2439 75.5257 39.8684 75.9944 39.8684C76.4584 39.8684 76.8183 40.2437 76.8183 40.7288C76.8183 41.2254 76.4582 41.6007 75.9944 41.6007C75.5257 41.6007 75.1669 41.2254 75.1669 40.7288ZM74.9844 40.7288C74.9844 41.312 75.4454 41.7501 75.9944 41.7501C76.5416 41.7501 77 41.312 77 40.7288C77 40.1561 76.5413 39.7195 75.9944 39.7195C75.4454 39.7195 74.9844 40.1561 74.9844 40.7288ZM63.7575 39.2201V40.9162H59.5613V41.4551V42.0939V42.8324H60.0418H61.9047H62.4437C63.4236 42.8324 64.2175 43.6359 64.2175 44.6283V45.267V45.7649V46.2038C64.2175 47.1963 63.4236 47.9997 62.4437 47.9997H57.5685V46.3039H62.3849V45.7649V45.267V44.5283H61.9047H60.0418H59.5023C58.5226 44.5283 57.7284 43.7248 57.7284 42.7324V42.0939V41.4551V41.016C57.7284 40.0251 58.5226 39.2201 59.5023 39.2201H63.7575ZM73.3751 48H69.1198C68.1401 48 67.346 47.1965 67.346 46.2041V45.0469V42.1731V41.016C67.346 40.0251 68.1401 39.2201 69.1198 39.2201H73.3751V40.9162H69.1788V42.1731V42.8719H73.3751V44.568H69.1788V45.0467V46.3039H73.3751V48ZM44.64 48H40.3847C39.4055 48 38.6111 47.1965 38.6111 46.2041V45.0469V42.1731V41.016C38.6111 40.0251 39.4055 39.2201 40.3847 39.2201H44.64V40.9162H40.4443V42.1731V42.8719H44.64V44.568H40.4443V45.0467V46.3039H44.64V48ZM20.1617 39.2201H21.0882H24.2019C25.1816 39.2201 25.9757 40.0251 25.9757 41.016V48H24.1428V40.9162H21.0882V48H19.2554V39.2201H20.1617ZM49.7641 42.8722H53.0142V42.533V41.2566V40.9162H49.7641V42.8722ZM54.8468 41.2566V42.533V42.7724C54.8468 43.6912 54.1662 44.448 53.2881 44.555L55.0065 48H52.9434L51.4445 44.5683H49.7641V48H47.9315V39.2201H48.8188H49.7643H53.0738C54.0532 39.2201 54.8474 40.0251 54.8474 41.016V41.2566H54.8468ZM30.174 39.2201L32.2235 46.524L34.3915 39.2201H36.4805L33.6821 48H30.8046L28.1243 39.2201H30.174ZM0 41.016C0 40.0251 0.794383 39.2201 1.77357 39.2201H6.32632V40.9162H1.83311V46.3039H6.32658V47.9997H1.77382C0.79464 47.9997 0.000257015 47.1963 0.000257015 46.2038V41.016H0ZM9.12501 41.016C9.12501 40.0251 9.9194 39.2201 10.8988 39.2201H14.6826C15.6626 39.2201 16.4567 40.0251 16.4567 41.016V46.2041C16.4567 47.1965 15.6626 48 14.6826 48H10.8988C9.9194 48 9.12501 47.1965 9.12501 46.2041V41.016ZM10.9581 40.9164H14.6241V46.3041H10.9581V40.9164ZM37.2783 6.48484L39.6352 13.8298H47.2631L41.0921 18.3683L43.4493 25.7146L37.2783 21.1748L31.1072 25.7146L33.4642 18.3683L27.2934 13.8298H34.921L37.2783 6.48484ZM51.4979 16.8608C51.4979 24.8121 45.1315 31.2569 37.278 31.2569C29.4245 31.2569 23.0579 24.8118 23.0579 16.8608C23.0579 8.90986 29.4248 2.46348 37.278 2.46348C45.1312 2.46348 51.4979 8.90986 51.4979 16.8608ZM37.2783 0C28.0809 0 20.625 7.54819 20.625 16.8611C20.625 26.1727 28.0809 33.7209 37.2783 33.7209C46.4757 33.7209 53.9313 26.1727 53.9313 16.8611C53.9311 7.54793 46.4757 0 37.2783 0Z" fill="white"/>
</svg>
