<svg width="55" height="41" viewBox="0 0 55 41" fill="none" xmlns="http://www.w3.org/2000/svg">
<path d="M6.64262 30.8906H7.58012V38H6.64262V32.5215L3.14164 38H2.19926V30.8906H3.14164V36.3691L6.64262 30.8906ZM12.1728 34.1621C12.1728 33.9147 12.0784 33.7194 11.8896 33.5762C11.7008 33.4297 11.442 33.3564 11.1132 33.3564C10.7942 33.3564 10.5273 33.4395 10.3124 33.6055C10.1008 33.7715 9.99504 33.9668 9.99504 34.1914H9.0966C9.0966 33.7324 9.28866 33.3564 9.67277 33.0635C10.0569 32.7705 10.537 32.624 11.1132 32.624C11.7317 32.624 12.2135 32.7575 12.5585 33.0244C12.9036 33.2881 13.0761 33.6657 13.0761 34.1572C13.0761 34.3949 13.0045 34.613 12.8612 34.8115C12.718 35.0101 12.5146 35.168 12.2509 35.2852C12.8661 35.4935 13.1737 35.9036 13.1737 36.5156C13.1737 37.0007 12.9866 37.3848 12.6122 37.668C12.2379 37.9512 11.7382 38.0928 11.1132 38.0928C10.5045 38.0928 10.0015 37.9447 9.60441 37.6484C9.21053 37.349 9.01359 36.9453 9.01359 36.4375H9.91203C9.91203 36.6947 10.026 36.916 10.2538 37.1016C10.4849 37.2839 10.7714 37.375 11.1132 37.375C11.4583 37.375 11.7366 37.2952 11.9482 37.1357C12.1598 36.9762 12.2655 36.7695 12.2655 36.5156C12.2655 36.2194 12.176 36.0078 11.997 35.8809C11.8212 35.7507 11.5461 35.6855 11.1718 35.6855H10.2685V34.9238H11.2499C11.8652 34.9076 12.1728 34.6536 12.1728 34.1621ZM16.785 33.0195C17.449 33.0195 17.9796 33.2425 18.3768 33.6885C18.7771 34.1312 18.9773 34.7155 18.9773 35.4414V35.5244C18.9773 36.0225 18.8813 36.4684 18.6893 36.8623C18.4972 37.2529 18.2205 37.5573 17.8592 37.7754C17.5011 37.9902 17.0877 38.0977 16.6189 38.0977C15.9093 38.0977 15.338 37.8617 14.9051 37.3896C14.4721 36.9144 14.2557 36.278 14.2557 35.4805V35.041C14.2557 33.931 14.4607 33.0488 14.8709 32.3945C15.2843 31.7402 15.893 31.3415 16.6971 31.1982C17.1528 31.1169 17.4604 31.0176 17.6199 30.9004C17.7794 30.7832 17.8592 30.6221 17.8592 30.417H18.6014C18.6014 30.8239 18.5086 31.1413 18.323 31.3691C18.1408 31.597 17.8478 31.7581 17.4441 31.8525L16.7703 32.0039C16.2332 32.1309 15.8296 32.3457 15.5594 32.6484C15.2924 32.9479 15.1183 33.3483 15.0369 33.8496C15.5154 33.2962 16.0981 33.0195 16.785 33.0195ZM16.6092 33.7617C16.1665 33.7617 15.8149 33.9115 15.5545 34.2109C15.2941 34.5072 15.1639 34.9189 15.1639 35.4463V35.5244C15.1639 36.0908 15.2941 36.54 15.5545 36.8721C15.8182 37.2008 16.173 37.3652 16.6189 37.3652C17.0682 37.3652 17.423 37.1992 17.6834 36.8672C17.9438 36.5352 18.074 36.0501 18.074 35.4121C18.074 34.9141 17.9422 34.5153 17.6785 34.2158C17.4181 33.9131 17.0617 33.7617 16.6092 33.7617ZM24.488 35.417C24.488 36.221 24.304 36.8688 23.9362 37.3604C23.5684 37.8519 23.0703 38.0977 22.4421 38.0977C21.8008 38.0977 21.2962 37.8942 20.9284 37.4873V40.0312H20.0251V32.7168H20.8503L20.8942 33.3027C21.2621 32.847 21.7731 32.6191 22.4274 32.6191C23.0622 32.6191 23.5635 32.8584 23.9313 33.3369C24.3024 33.8154 24.488 34.4811 24.488 35.334V35.417ZM23.5846 35.3145C23.5846 34.7188 23.4577 34.2484 23.2038 33.9033C22.9499 33.5583 22.6016 33.3857 22.1589 33.3857C21.612 33.3857 21.2018 33.6283 20.9284 34.1133V36.6377C21.1986 37.1195 21.612 37.3604 22.1686 37.3604C22.6016 37.3604 22.945 37.1895 23.1989 36.8477C23.4561 36.5026 23.5846 35.9915 23.5846 35.3145ZM29.022 38C28.9699 37.8958 28.9276 37.7103 28.8951 37.4434C28.4752 37.8796 27.9739 38.0977 27.3912 38.0977C26.8703 38.0977 26.4423 37.9512 26.107 37.6582C25.775 37.362 25.6089 36.9876 25.6089 36.5352C25.6089 35.985 25.8173 35.5586 26.2339 35.2559C26.6539 34.9499 27.2431 34.7969 28.0015 34.7969H28.8804V34.3818C28.8804 34.0661 28.786 33.8154 28.5972 33.6299C28.4084 33.4411 28.1301 33.3467 27.7623 33.3467C27.44 33.3467 27.1698 33.4281 26.9517 33.5908C26.7336 33.7536 26.6246 33.9505 26.6246 34.1816H25.7164C25.7164 33.918 25.8091 33.6641 25.9947 33.4199C26.1835 33.1725 26.4374 32.9772 26.7564 32.834C27.0787 32.6908 27.4319 32.6191 27.816 32.6191C28.4247 32.6191 28.9016 32.7721 29.2466 33.0781C29.5917 33.3809 29.7707 33.7992 29.7837 34.333V36.7646C29.7837 37.2497 29.8456 37.6354 29.9693 37.9219V38H29.022ZM27.523 37.3115C27.8062 37.3115 28.0748 37.2383 28.3287 37.0918C28.5826 36.9453 28.7665 36.7549 28.8804 36.5205V35.4365H28.1724C27.0656 35.4365 26.5123 35.7604 26.5123 36.4082C26.5123 36.6914 26.6067 36.9128 26.7955 37.0723C26.9843 37.2318 27.2268 37.3115 27.523 37.3115ZM35.6362 38H34.7329V35.7441H32.3061V38H31.3979V32.7168H32.3061V35.0068H34.7329V32.7168H35.6362V38ZM41.5277 38H40.6243V35.7441H38.1976V38H37.2894V32.7168H38.1976V35.0068H40.6243V32.7168H41.5277V38ZM42.8635 35.3096C42.8635 34.792 42.9644 34.3265 43.1662 33.9131C43.3713 33.4997 43.6545 33.1807 44.0158 32.9561C44.3804 32.7314 44.7954 32.6191 45.2609 32.6191C45.9803 32.6191 46.5614 32.8682 47.0041 33.3662C47.4501 33.8643 47.673 34.5267 47.673 35.3535V35.417C47.673 35.9313 47.5738 36.3936 47.3752 36.8037C47.1799 37.2106 46.8983 37.528 46.5305 37.7559C46.1659 37.9837 45.746 38.0977 45.2707 38.0977C44.5546 38.0977 43.9735 37.8486 43.5275 37.3506C43.0848 36.8525 42.8635 36.1934 42.8635 35.373V35.3096ZM43.7717 35.417C43.7717 36.0029 43.9068 36.4733 44.177 36.8281C44.4504 37.1829 44.815 37.3604 45.2707 37.3604C45.7297 37.3604 46.0943 37.1813 46.3645 36.8232C46.6346 36.4619 46.7697 35.9574 46.7697 35.3096C46.7697 34.7301 46.6314 34.2614 46.3547 33.9033C46.0812 33.542 45.7167 33.3613 45.2609 33.3613C44.815 33.3613 44.4553 33.5387 44.1818 33.8936C43.9084 34.2484 43.7717 34.7562 43.7717 35.417ZM51.1182 38.0977C50.4021 38.0977 49.8194 37.8633 49.3702 37.3945C48.921 36.9225 48.6964 36.2926 48.6964 35.5049V35.3389C48.6964 34.8148 48.7956 34.3477 48.9942 33.9375C49.196 33.5241 49.476 33.2018 49.8341 32.9707C50.1954 32.7363 50.586 32.6191 51.0059 32.6191C51.6928 32.6191 52.2266 32.8454 52.6075 33.2979C52.9884 33.7503 53.1788 34.3981 53.1788 35.2412V35.6172H49.5997C49.6127 36.138 49.7641 36.5596 50.0538 36.8818C50.3468 37.2008 50.7178 37.3604 51.1671 37.3604C51.4861 37.3604 51.7563 37.2952 51.9776 37.165C52.199 37.0348 52.3927 36.8623 52.5587 36.6475L53.1104 37.0771C52.6677 37.7575 52.0037 38.0977 51.1182 38.0977ZM51.0059 33.3613C50.6414 33.3613 50.3354 33.4948 50.088 33.7617C49.8406 34.0254 49.6876 34.3965 49.629 34.875H52.2755V34.8066C52.2494 34.3477 52.1257 33.9928 51.9044 33.7422C51.683 33.4883 51.3835 33.3613 51.0059 33.3613Z" fill="#A3A3A3"/>
<path fill-rule="evenodd" clip-rule="evenodd" d="M27 24C49.8083 8.97174 34.4375 -3.63261 27 4.6087C19.5625 -3.63261 4.19169 8.97174 27 24Z" fill="#A3A3A3"/>
</svg>
