<svg width="77" height="26" viewBox="0 0 77 26" fill="none" xmlns="http://www.w3.org/2000/svg">
<path d="M24.7804 21.9733L24.706 3.3813C24.706 1.51203 26.1612 4.78964e-07 28.0276 4.78964e-07H28.3921C30.2599 4.78964e-07 31.7748 1.51203 31.7748 3.3813L31.8492 21.9733C31.8492 23.8397 30.3372 25.3561 28.465 25.3561H28.0815C26.2093 25.3561 24.7804 23.8397 24.7804 21.9733Z" fill="white"/>
<path d="M67.483 2.19556L74.9979 14.4304C76.6222 17.0724 76.9999 17.7606 76.9999 19.7086C76.9999 22.7808 74.215 25.1312 71.7435 25.1312H61.5967C59.742 25.1312 58.2475 23.851 58.2475 22.0007V21.7893C58.2475 19.9405 59.742 18.443 61.5967 18.443H67.8169C68.2062 18.443 68.4541 18.3905 68.5561 18.1441C68.6699 17.8743 68.6392 17.7227 68.4541 17.4209L64.0229 10.3098C63.9486 10.1917 63.8669 10.0284 63.7269 10.0284C63.5986 10.0284 63.4878 10.1917 63.428 10.3186L56.6523 21.9395C55.6025 23.784 54.3602 25.1312 52.5084 25.1312H39.4892C37.025 25.1312 34.5419 22.7006 34.5419 20.1825V3.37078C34.5419 1.52338 36.0379 0.023016 37.8824 0.023016H38.3096C40.1585 0.023016 41.6588 1.52338 41.6588 3.37078L41.653 17.1045C41.653 17.6119 42.0204 18.0129 42.5672 18.0129H49.0411C50.1711 18.0129 50.855 17.6061 51.4499 16.6175L60.1503 2.19556C60.9814 0.823503 62.3111 0.090087 63.88 0.090087C65.3979 0.090087 66.6008 0.776845 67.483 2.19556Z" fill="white"/>
<path d="M8.0253 16.4283C7.5208 16.4283 7.11691 16.8351 7.11691 17.3381V22.0171C7.11691 23.866 5.61946 25.359 3.77352 25.359H3.34339C1.49745 25.359 0 23.866 0 22.0171L0.00291665 13.5077C0.00291665 11.3483 1.66076 9.52424 3.98495 9.52424H17.5801C19.4246 9.52424 20.9235 11.0231 20.9235 12.872V13.082C20.9235 14.9337 19.4246 16.4283 17.5801 16.4283H8.0253Z" fill="white"/>
<path d="M3.38373 0.481137H19.22C21.0863 0.481137 22.6042 1.93776 22.6042 3.80265V4.01262C22.6042 5.88626 21.0863 7.39975 19.22 7.39975H3.38373C1.51593 7.39975 0.000976562 5.88626 0.000976562 4.01262V3.78078C0.000976562 1.91152 1.51593 0.481137 3.38373 0.481137Z" fill="white"/>
</svg>
