<svg width="77" height="42" viewBox="0 0 77 42" fill="none" xmlns="http://www.w3.org/2000/svg">
<path d="M19.2423 35.015L17.4897 29.5683C17.4021 29.332 17.2376 29.1319 17.0226 29.0004C16.8076 28.8688 16.5547 28.8133 16.3044 28.8427H13.2847L8.8752 40.8449H11.011C11.1847 40.8542 11.3585 40.8282 11.5219 40.7682C11.8362 40.5644 12.0665 40.2543 12.1708 39.8945L12.8197 38.142H17.2394C17.3518 38.4076 18.154 40.8449 18.154 40.8449H21.051L19.2423 35.015ZM13.6219 35.6639C13.9285 34.785 14.7255 32.5369 15.0679 31.6223C15.3744 32.5778 16.6007 35.623 16.6314 35.6639H13.6219Z" fill="white"/>
<path d="M27.8876 31.3974C28.5426 31.3405 29.2025 31.4046 29.8343 31.5864C30.0913 31.6734 30.3676 31.6858 30.6314 31.6222L30.8971 31.5098C31.2036 31.3208 31.4335 30.2529 31.5868 29.6448V29.4916L31.4693 29.4149C31.0718 29.2635 30.6657 29.1356 30.2533 29.0317C29.507 28.8302 28.7372 28.7289 27.9642 28.7303H27.9285C25.4504 28.7303 21.6796 30.3653 21.6029 34.8616V34.9025C21.6796 39.4346 25.4504 41.0747 27.9285 41.0747H27.9642C28.7374 41.0738 29.5071 40.9707 30.2533 40.7681C31.3569 40.5025 31.4335 40.4258 31.4693 40.39L31.5868 40.3134V40.1601C31.4335 39.547 31.2036 38.52 30.8971 38.2901L30.6569 38.1776C30.3891 38.1321 30.114 38.1586 29.8598 38.2543C29.2224 38.4036 28.566 38.4553 27.9131 38.4076C26.0482 38.2185 24.9037 36.9207 24.8475 34.8616C24.8781 32.8434 26.0226 31.5864 27.8876 31.3974Z" fill="white"/>
<path d="M75.7429 31.6225C76.1079 31.6409 76.4682 31.5346 76.7648 31.321C76.9392 31.0628 77.0203 30.7528 76.9947 30.4422V28.9094H68.6918V40.8451H75.7429C75.907 40.8528 76.0709 40.8268 76.2245 40.7686C76.3781 40.7104 76.5182 40.6213 76.636 40.5069C76.7538 40.3924 76.8469 40.255 76.9095 40.1031C76.972 39.9513 77.0028 39.7882 76.9998 39.6239V38.1422H71.7064C71.7064 38.1422 71.7422 36.3896 71.7422 36.0984H76.0852V33.3393H71.7422V31.6225H75.7429Z" fill="white"/>
<path d="M7.54157 38.9394C7.54157 38.6737 7.42916 38.1423 6.4788 38.1423H3.06568V29.9672C3.07217 29.8204 3.04829 29.6738 2.99554 29.5367C2.94279 29.3995 2.8623 29.2747 2.75911 29.1701C2.4756 28.9535 2.12421 28.8448 1.76787 28.8636H0V40.8453H7.5058L7.54157 38.9394Z" fill="white"/>
<path d="M55.6934 37.5697C55.77 35.7405 54.6715 34.5603 52.1167 33.799L52.0401 33.7581L50.8956 33.4157L50.7423 33.3391C49.7919 33.0325 49.2095 32.7668 49.2095 32.2355V32.1895C49.2861 31.3158 50.9211 31.2749 50.962 31.2749C51.801 31.2752 52.6308 31.4492 53.3992 31.7858H53.4759C53.6384 31.8496 53.8162 31.8638 53.9868 31.8267L54.2167 31.7092C54.5948 31.5201 54.9423 30.4931 55.0547 30.1099L55.0905 29.9566L55.0138 29.8442C54.6124 29.6071 54.192 29.4037 53.7569 29.2362C53.0154 29.0098 52.2477 28.881 51.473 28.853H50.8241C47.3598 28.853 46.0263 30.9888 45.9854 32.399C45.9445 33.8092 46.7876 34.5705 48.0292 35.2143C48.7129 35.5425 49.4286 35.7993 50.1649 35.9807L50.8496 36.1697C52.1474 36.5887 52.643 37.0435 52.5664 37.7332C52.5255 37.9581 52.0554 38.3413 51.0795 38.3413C50.3536 38.3456 49.632 38.23 48.9438 37.9989C48.6014 37.8456 48.2591 37.6566 47.881 37.488L47.8044 37.4522C47.6285 37.3657 47.4377 37.3136 47.2423 37.2989L46.9766 37.3705C46.5577 37.5238 46.0263 38.515 45.8321 38.9748L45.7197 39.123L45.873 39.2763C45.9088 39.2763 46.5219 39.7362 47.0533 40.0785C47.7124 40.4292 48.4176 40.6855 49.1482 40.8398C49.704 40.9116 50.2636 40.9492 50.8241 40.9522C53.5321 40.9573 55.4737 39.6237 55.6934 37.5697Z" fill="white"/>
<path d="M33.1452 23.2785C33.8708 23.6618 33.7941 22.7676 34.3255 22.5172C34.5554 22.4815 34.7496 23.1661 35.051 23.0895C35.4342 23.0128 35.3576 21.9858 35.8532 22.1391C36.078 22.2158 36.078 22.6501 36.5021 22.5939C36.9262 22.5377 36.8036 21.9092 37.0693 21.7202C37.335 21.5311 37.5291 21.9092 37.7948 21.9858C38.0605 22.0625 38.3058 21.4749 38.1372 20.918C37.9481 20.499 37.5649 20.0443 35.3576 19.4311C35.051 19.3545 35.0153 19.2063 35.0153 19.053C35.0153 18.9764 35.0153 18.9355 35.1686 18.9355C38.8931 19.6995 42.7598 19.3567 46.2919 17.9494C46.5218 17.8727 46.5575 17.8319 46.7466 17.8727C49.5673 18.3391 52.4337 18.466 55.2845 18.2508C56.6947 18.2151 57.7217 17.9851 58.1407 17.3005C58.2531 17.1063 58.3298 16.9939 58.1765 16.7895C57.9108 16.3706 57.8341 16.5596 57.6093 16.4472C57.4918 16.3706 57.456 16.1815 57.3028 16.1049C57.1495 16.0282 56.8429 16.4063 56.6947 16.3297C56.5466 16.253 56.4648 15.8187 56.3115 15.8187C56.1582 15.8187 55.9283 16.1253 55.8006 16.0487C55.6728 15.972 55.6115 15.5377 55.4174 15.5377C55.2232 15.5377 54.9064 15.8085 54.8093 15.7676C54.5794 15.691 54.5794 15.2567 54.4312 15.2567C54.2831 15.2567 54.0123 15.4815 53.859 15.4815C53.6291 15.4815 53.6699 15.3333 53.5933 15.1034C53.5166 14.8735 53.44 14.9859 53.3225 15.0268C52.8115 15.2925 52.9035 15.2925 52.6378 14.7202C52.5612 14.5311 52.1269 14.8735 51.8765 14.8377C51.2617 14.7813 50.6712 14.5703 50.1597 14.2246C50.0115 14.1122 49.8583 13.9231 49.705 13.8822C49.3626 13.8056 49.5926 14.8735 50.2772 15.18C52.1422 15.9771 54.3648 16.2479 55.9896 16.8917C56.4495 17.1216 55.8772 17.464 55.5349 17.1983C55.4582 17.1574 55.3458 16.9684 55.1517 16.8917C54.9575 16.8151 54.7327 17.3107 54.5079 17.2749C54.2013 17.1983 54.2371 16.626 53.9969 16.626C53.7568 16.626 53.6188 17.045 53.3889 17.0092C53.159 16.9735 52.878 16.1713 52.74 16.3603C52.4334 16.6669 52.3977 16.8713 52.2291 16.7384C52.0604 16.6056 51.9991 16.437 51.8867 16.1713C51.7743 15.9056 51.3145 16.437 51.1203 16.437C50.8188 16.4727 50.778 15.6757 50.5123 15.8289C48.3816 17.045 47.9218 14.0355 45.9138 13.5399C45.4028 13.4275 44.3809 14.5311 43.8955 14.4187C43.2109 14.2655 42.6795 13.8822 42.8736 13.3509C42.8736 13.31 42.9503 13.31 42.9503 13.3509C43.5583 14.0764 44.1663 14.0764 45.0452 13.3509C46.2612 12.283 48.2845 12.8399 49.1327 13.3866C49.2567 13.4203 49.3863 13.4286 49.5136 13.411C49.6409 13.3935 49.7633 13.3504 49.8736 13.2844C49.9502 13.2487 50.0269 13.172 50.1035 13.172C50.2926 13.0954 50.5583 13.6268 50.7473 13.5552C50.9364 13.4837 51.0181 12.8297 51.2072 12.7531C51.3962 12.6764 51.6261 13.264 51.8561 13.1363C52.086 13.0085 52.0809 12.4874 52.2342 12.3698C52.3875 12.2523 52.7451 12.8297 52.9188 12.7531C53.0926 12.6764 53.113 12.0684 53.302 11.9509C53.4911 11.8333 53.813 12.4618 53.9867 12.3698C54.1604 12.2779 54.2166 11.6852 54.4057 11.5728C54.5947 11.4604 54.8655 12.0275 55.0546 11.9151C55.2436 11.8027 55.2845 11.2662 55.4327 11.1896C55.5809 11.1129 55.9692 11.6085 56.1225 11.5319C56.2757 11.4552 56.3473 10.9239 56.5772 10.7348C56.6947 10.6173 56.9962 11.1129 57.1903 11.0771C57.3845 11.0414 57.3794 10.7348 57.4918 10.5049C57.6042 10.275 57.9108 10.3516 58.0027 10.0501C58.1509 9.5392 57.6962 9.05891 56.894 9.02825C56.401 9.04026 55.913 9.12993 55.448 9.29395C54.4977 9.52387 52.7809 9.86621 50.7984 10.3618C49.8736 9.03336 49.7561 9.70781 49.051 9.70781C48.7086 9.70781 48.4787 9.82022 48.2897 9.70781C47.5641 9.09979 46.3838 9.47789 45.6634 10.1268C45.2802 10.4691 44.6722 10.3158 43.9109 10.2392C43.5045 10.2421 43.1075 10.3609 42.7663 10.5815C42.5419 10.6406 42.3061 10.6406 42.0817 10.5815C32.1897 6.97425 26.5182 12.4209 25.7927 9.98372C25.9102 8.65015 29.681 7.8122 32.435 7.05089C35.3934 6.24871 42.7459 4.23047 42.4444 0.0407113C42.3269 -0.189214 42.2503 0.612971 41.8313 0.991071C41.6423 1.18523 41.3766 1.33341 41.2233 1.18523C40.9576 0.837787 40.5744 1.8699 40.1554 1.8699C39.2817 1.18523 39.435 2.17136 38.8218 2.21223C38.4795 2.13559 38.3109 1.82902 38.0247 1.94654C37.7386 2.06406 37.3758 2.82026 37.1102 2.66697C36.308 2.05895 36.3846 2.40128 35.47 2.93778C34.9591 3.28011 35.051 2.28887 34.4021 2.8969C33.5284 3.69909 33.4518 3.77573 33.0686 3.16259C32.6854 2.54946 32.0824 3.88814 31.5357 3.88814C30.7744 3.81149 31.5357 2.40128 29.9007 3.9239C29.5175 4.27135 29.3898 4.04142 29.1752 3.69909C29.0219 3.28011 28.5263 3.81149 28.4139 3.96478C28.3014 4.11806 28.0715 4.27135 27.9029 4.38375C27.6372 4.53704 27.5606 4.27135 27.392 4.07719C27.2233 3.88303 26.6715 4.34288 26.3701 4.69032C25.9869 5.14506 25.8591 4.87937 25.5321 4.69032C25.2051 4.50127 24.5818 5.33411 24.2752 5.75309C24.0861 5.98302 24.0453 5.90637 23.8153 5.75309C23.7029 5.60492 23.6263 5.56404 23.4372 5.71732C23.0892 6.12561 22.77 6.55754 22.4818 7.01002C22.3336 7.28082 22.2927 7.23994 22.0628 7.08666C21.8329 6.93337 21.6847 7.12753 21.6438 7.1633C18.2154 10.2903 18.292 15.9669 19.5132 18.4808C19.5898 18.6698 20.0854 18.634 20.2745 18.0975C20.5402 17.3362 20.8467 17.183 21 17.183C21.1533 17.183 21.1124 17.2238 21.0767 17.4129C20.7351 18.2209 20.4417 19.0483 20.1978 19.891C20.1175 20.1275 20.0973 20.3803 20.1393 20.6265C20.1812 20.8727 20.2839 21.1046 20.438 21.3012C20.7006 21.8487 21.1275 22.3006 21.6591 22.5939C22.0372 22.7472 21.6591 21.7968 22.0781 21.7968C22.3847 21.7559 22.5891 21.9858 22.8394 22.1749C23.5241 22.6348 23.4117 21.3778 23.6774 21.2603C23.9431 21.2603 24.1372 21.2603 24.2854 21.4136C24.4796 21.6435 24.6277 21.6026 24.7453 21.3778C25.5066 19.6253 24.7453 18.7873 23.4117 18.8997C23.0285 18.9355 23.146 18.864 23.1818 18.634C24.0146 16.5749 23.8102 15.3282 21.9708 15.3282C21.9228 15.3364 21.8736 15.3338 21.8268 15.3205C21.7799 15.3073 21.7366 15.2837 21.7 15.2516C21.511 15.0983 21.6234 14.9859 21.7767 14.945C24.1423 14.6793 24.4847 16.5494 23.9482 18.2253C23.8715 18.491 23.9891 18.491 24.1423 18.491C25.1642 18.5676 25.246 18.6443 25.4759 19.2932C25.5883 19.5589 25.5117 19.518 25.8182 19.5589C27.0343 19.8245 29.7423 20.5092 30.3861 19.4822C30.7969 18.7415 31.3551 18.0929 32.0262 17.5764C32.6775 17.1957 33.4091 16.9734 34.162 16.9275C34.2744 16.9275 34.351 16.9275 34.351 17.0808C34.351 17.2341 34.1211 17.3465 33.9678 17.4231C32.2919 17.7297 31.6481 18.445 31.2649 19.4056C31.035 20.3968 31.3416 20.9384 31.9496 21.2705C32.2562 21.388 32.2919 21.388 32.4605 21.7304C32.7671 22.2515 32.8029 23.0537 33.1452 23.2785ZM50.4459 10.4027C50.2079 10.4709 49.9655 10.5221 49.7203 10.556C49.6845 10.556 49.6437 10.556 49.6437 10.4436C49.8327 9.64139 50.5838 9.98372 50.4459 10.4027ZM48.5758 10.6326C48.6524 10.7859 48.5758 10.8626 48.54 10.8626C48.121 10.9392 47.7021 10.975 47.3189 11.0107C46.8641 10.556 47.9678 9.64139 48.5758 10.6326ZM39.6598 12.1961C39.8815 12.0006 40.1664 11.8917 40.462 11.8896C40.5744 11.8896 40.5744 11.8896 40.6152 12.002C40.6207 12.2072 40.607 12.4124 40.5744 12.6151C40.5386 12.7275 40.5386 12.7275 40.4262 12.6917C40.1401 12.6147 39.877 12.4692 39.6598 12.2677C39.624 12.2625 39.624 12.1961 39.6598 12.1961ZM27.1263 5.62024C27.3524 5.43639 27.6372 5.34025 27.9285 5.34944C28.0409 5.34944 28.0817 5.31368 28.0817 5.46696C28.1233 5.6696 28.1092 5.87973 28.0409 6.07499C28.0051 6.15163 28.0051 6.15163 27.8876 6.15163C27.6135 6.05244 27.3567 5.91108 27.1263 5.73265C27.1178 5.72596 27.1109 5.71742 27.1062 5.70769C27.1014 5.69795 27.099 5.68727 27.099 5.67645C27.099 5.66563 27.1014 5.65494 27.1062 5.64521C27.1109 5.63547 27.1178 5.62694 27.1263 5.62024ZM25.6803 6.13119C25.8997 5.93519 26.1832 5.82615 26.4774 5.82462C26.5949 5.82462 26.5949 5.82462 26.6306 5.93703C26.6764 6.14072 26.664 6.35318 26.5949 6.55017C26.554 6.66257 26.554 6.66257 26.4416 6.6217C26.1566 6.54837 25.8947 6.40426 25.6803 6.20272C25.6394 6.17207 25.6394 6.13119 25.6803 6.10053V6.13119ZM25.9817 7.38812C26.0584 7.38812 26.0993 7.38812 26.0993 7.50053C26.1557 7.69928 26.1557 7.9098 26.0993 8.10855C26.0584 8.17497 26.0584 8.17497 25.946 8.17497C25.6618 8.09964 25.4004 7.95579 25.1847 7.756C25.108 7.756 25.1438 7.67936 25.1847 7.67936C25.4028 7.4794 25.6859 7.36507 25.9817 7.35746V7.38812ZM25.338 9.4319C25.2971 9.54431 25.2971 9.54431 25.1847 9.50854C24.9082 9.41472 24.6505 9.27289 24.4234 9.08957C24.3825 9.08957 24.3825 9.01293 24.4234 9.01293C24.6464 8.82304 24.9276 8.7149 25.2204 8.70636C25.338 8.70636 25.3737 8.70636 25.3737 8.81877C25.4093 9.00444 25.3969 9.1961 25.338 9.3757V9.4319ZM24.1934 6.64214C24.4184 6.45673 24.7045 6.36199 24.9956 6.37644C25.108 6.37644 25.108 6.33557 25.1438 6.48885C25.1886 6.69091 25.1762 6.90146 25.108 7.09688C25.0723 7.17352 25.0723 7.2144 24.9547 7.13775C24.6765 7.06582 24.4169 6.93515 24.1934 6.75454C24.1849 6.74785 24.1781 6.73931 24.1733 6.72958C24.1686 6.71984 24.1662 6.70916 24.1662 6.69834C24.1662 6.68752 24.1686 6.67684 24.1733 6.6671C24.1781 6.65737 24.1849 6.64883 24.1934 6.64214ZM21.8329 8.39468C22.0422 8.21003 22.3154 8.11466 22.5942 8.12899C22.7475 8.12899 22.7475 8.08811 22.7832 8.2414C22.807 8.4446 22.7949 8.6504 22.7475 8.84942C22.7066 8.92606 22.6708 8.96694 22.5942 8.8903C22.3013 8.8246 22.0271 8.6936 21.792 8.50709C21.7878 8.48486 21.7894 8.46193 21.7965 8.44047C21.8037 8.41901 21.8162 8.39973 21.8329 8.38446V8.39468ZM23.5445 9.12022C23.6621 9.12022 23.6978 9.12022 23.6978 9.23263C23.7437 9.4346 23.7313 9.64546 23.6621 9.84066C23.6212 9.95818 23.6212 9.95818 23.5088 9.9173C23.2342 9.81929 22.9772 9.67783 22.7475 9.49832C22.7066 9.46256 22.7066 9.46256 22.7475 9.42168C22.9671 9.22544 23.25 9.1148 23.5445 9.11001V9.12022ZM20.9898 10.0348C21.0958 9.93566 21.2217 9.86022 21.3592 9.81353C21.4966 9.76683 21.6424 9.74996 21.7869 9.76402C21.9044 9.76402 21.9402 9.72825 21.9402 9.84066C21.9853 10.0564 21.973 10.2801 21.9044 10.4896C21.8635 10.5662 21.8635 10.5662 21.7511 10.5253C21.4628 10.4604 21.1989 10.3151 20.9898 10.1064C20.9489 10.0961 20.9489 10.0604 20.9949 10.0246L20.9898 10.0348ZM20.8365 11.5932C20.7956 11.5574 20.7956 11.5574 20.8365 11.4808C21.0723 11.3197 21.3483 11.2277 21.6336 11.2151C21.7102 11.2151 21.7511 11.2151 21.7869 11.3275C21.7918 11.5308 21.7798 11.7342 21.7511 11.9355C21.7102 12.0122 21.7102 12.0531 21.5978 12.0122C21.3207 11.9186 21.064 11.7729 20.8416 11.583L20.8365 11.5932ZM22.4409 13.2844C22.4051 13.3611 22.4051 13.402 22.2876 13.3611C22.0095 13.2712 21.7511 13.129 21.5263 12.9421C21.4905 12.9063 21.4905 12.9063 21.5263 12.8655C21.7596 12.6908 22.0379 12.5862 22.3285 12.564C22.4409 12.564 22.4767 12.564 22.4767 12.6764C22.5021 12.8796 22.49 13.0857 22.4409 13.2844ZM22.5942 10.8881C22.8264 10.7194 23.1043 10.625 23.3912 10.6173C23.4679 10.6173 23.5088 10.6173 23.5445 10.7348C23.5548 10.9404 23.5288 11.1462 23.4679 11.3428C23.4679 11.4195 23.4679 11.4195 23.3555 11.4195C23.0773 11.3296 22.8189 11.1874 22.5942 11.0005C22.5759 11.0005 22.5583 10.9932 22.5454 10.9803C22.5325 10.9674 22.5252 10.9498 22.5252 10.9315C22.5252 10.9132 22.5325 10.8957 22.5454 10.8828C22.5583 10.8698 22.5759 10.8626 22.5942 10.8626V10.8881ZM23.6978 14.2399C23.6621 14.3523 23.6621 14.3523 23.5445 14.3165C23.2603 14.2412 22.9989 14.0974 22.7832 13.8976C22.7475 13.8976 22.7475 13.8567 22.7832 13.8209C23.0044 13.6246 23.2896 13.5156 23.5854 13.5144C23.6978 13.5144 23.6978 13.5144 23.7387 13.6268C23.7427 13.8235 23.7291 14.0201 23.6978 14.2144V14.2399ZM24.1168 12.6406C24.081 12.7531 24.081 12.7531 23.9635 12.7173C23.6758 12.6314 23.4142 12.4751 23.2022 12.2625C23.1664 12.2625 23.1664 12.191 23.2022 12.191C23.4268 12.0004 23.7099 11.8922 24.0044 11.8844C24.1168 11.8844 24.1577 11.8844 24.1577 11.9969C24.1817 12.2037 24.1678 12.4132 24.1168 12.6151V12.6406ZM24.1577 8.44578C23.878 8.35579 23.618 8.21363 23.3912 8.0268C23.3555 7.99103 23.3555 7.99103 23.4321 7.95016C23.6395 7.75839 23.911 7.65089 24.1934 7.6487C24.3058 7.6487 24.3467 7.6487 24.3825 7.76111C24.3927 7.96671 24.3668 8.17251 24.3058 8.36913C24.3058 8.4611 24.2701 8.4611 24.1577 8.42023V8.44578ZM24.2701 10.4282C24.5006 10.2477 24.7801 10.1409 25.0723 10.1217C25.1847 10.1626 25.1847 10.1217 25.2204 10.275C25.2234 10.4799 25.2114 10.6849 25.1847 10.8881C25.1438 10.9647 25.1438 10.9647 25.0314 10.9647C24.7603 10.857 24.5044 10.7144 24.2701 10.5407C24.2292 10.4793 24.2292 10.4436 24.2701 10.4027V10.4282ZM25.292 15.0779C25.2562 15.1136 25.2562 15.1545 25.1387 15.1136C24.8652 15.0132 24.6085 14.872 24.3774 14.6946C24.3416 14.6589 24.3416 14.6589 24.3774 14.5822C24.6123 14.4106 24.8938 14.3144 25.1847 14.3063C25.2971 14.3063 25.2971 14.3063 25.338 14.4187C25.3761 14.6301 25.3621 14.8476 25.2971 15.0523L25.292 15.0779ZM25.7518 13.5144C25.7109 13.591 25.7109 13.6268 25.5985 13.591C25.3204 13.5011 25.062 13.3589 24.8372 13.172C24.8277 13.166 24.8199 13.1578 24.8145 13.1479C24.809 13.1381 24.8062 13.127 24.8062 13.1158C24.8062 13.1046 24.809 13.0936 24.8145 13.0837C24.8199 13.0739 24.8277 13.0656 24.8372 13.0596C25.0604 12.869 25.346 12.7672 25.6394 12.7735C25.7569 12.7735 25.7927 12.7377 25.7927 12.891C25.8152 13.0909 25.8031 13.2931 25.7569 13.4888L25.7518 13.5144ZM26.0175 12.1041C25.9766 12.145 25.9766 12.145 25.8642 12.145C25.5878 12.0511 25.3301 11.9093 25.1029 11.7261C25.0263 11.6852 25.0672 11.6852 25.1029 11.6085C25.3372 11.4406 25.6169 11.348 25.9051 11.3428C25.9766 11.3428 26.0175 11.3428 26.0533 11.4552C26.0767 11.6633 26.0664 11.8738 26.0226 12.0786L26.0175 12.1041ZM27.3102 14.8122C27.2744 14.8888 27.2744 14.9246 27.162 14.8479C26.8821 14.7834 26.6213 14.6539 26.4007 14.4698C26.3598 14.429 26.3598 14.3932 26.4007 14.3932C26.5046 14.289 26.6293 14.2078 26.7666 14.155C26.9039 14.1022 27.0509 14.0789 27.1978 14.0866C27.3102 14.0866 27.3102 14.0866 27.3511 14.199C27.3715 14.3955 27.3594 14.594 27.3153 14.7866L27.3102 14.8122ZM27.7292 13.2793C27.6934 13.356 27.6576 13.3968 27.581 13.356C27.2945 13.2564 27.0243 13.1152 26.7788 12.937C26.7431 12.9012 26.7788 12.9012 26.8197 12.8603C27.0369 12.675 27.3067 12.5624 27.5912 12.5385C27.7036 12.5385 27.7394 12.5385 27.7394 12.6509C27.8018 12.8577 27.8 13.0786 27.7343 13.2844L27.7292 13.2793ZM28.0357 11.7465C28 11.8231 28 11.8231 27.8825 11.7874C27.5991 11.71 27.3382 11.5664 27.1212 11.3684C27.0445 11.3275 27.0445 11.3275 27.1212 11.2917C27.3521 11.1121 27.6314 11.0053 27.9233 10.9852C28 10.9852 28.0358 10.9852 28.0766 11.0976C28.0831 11.3162 28.0711 11.535 28.0409 11.7516L28.0357 11.7465ZM29.2927 14.526C29.2927 14.6436 29.2569 14.6436 29.1394 14.6027C28.8617 14.5117 28.6035 14.3696 28.3781 14.1837C28.3423 14.1479 28.3423 14.1071 28.3781 14.1071C28.6042 13.9149 28.8888 13.8051 29.1854 13.7954C29.2978 13.7954 29.2978 13.7954 29.3387 13.9078C29.3802 14.1104 29.3661 14.3206 29.2978 14.5158L29.2927 14.526ZM29.5584 12.9268C29.5584 13.0034 29.5226 13.0443 29.4102 13.0034C29.1305 12.9134 28.8705 12.7713 28.6438 12.5844C28.6353 12.5777 28.6284 12.5692 28.6237 12.5595C28.6189 12.5497 28.6165 12.5391 28.6165 12.5282C28.6165 12.5174 28.6189 12.5067 28.6237 12.497C28.6284 12.4873 28.6353 12.4787 28.6438 12.472C28.8788 12.3056 29.1581 12.213 29.446 12.2063C29.5584 12.2063 29.5584 12.2063 29.5992 12.3187C29.6406 12.5177 29.6282 12.724 29.5635 12.9166L29.5584 12.9268ZM29.8649 11.2917C29.8292 11.4042 29.8292 11.4042 29.7117 11.3684C29.4395 11.2651 29.1832 11.124 28.9503 10.9494C28.9146 10.9494 28.9146 10.8728 28.9503 10.8728C29.1716 10.6764 29.4567 10.5674 29.7525 10.5662C29.8649 10.5662 29.9058 10.5662 29.9058 10.6786C29.9471 10.8792 29.9348 11.0872 29.87 11.2815L29.8649 11.2917ZM31.1985 13.8822C31.1627 13.9947 31.1627 13.9946 31.0452 13.9589C30.7778 13.8602 30.5224 13.7317 30.2839 13.5757C30.2754 13.569 30.2685 13.5604 30.2638 13.5507C30.2591 13.541 30.2566 13.5303 30.2566 13.5195C30.2566 13.5086 30.2591 13.498 30.2638 13.4882C30.2685 13.4785 30.2754 13.47 30.2839 13.4633C30.5086 13.2726 30.7916 13.1645 31.0861 13.1567C31.1985 13.1925 31.2394 13.1567 31.2394 13.2691C31.2807 13.4697 31.2683 13.6777 31.2036 13.872L31.1985 13.8822ZM31.4284 12.3494C31.4284 12.426 31.4284 12.426 31.3109 12.426C31.0397 12.3207 30.7837 12.1798 30.5496 12.0071C30.5411 12.0004 30.5342 11.9918 30.5295 11.9821C30.5248 11.9724 30.5223 11.9617 30.5223 11.9509C30.5223 11.94 30.5248 11.9294 30.5295 11.9196C30.5342 11.9099 30.5411 11.9014 30.5496 11.8947C30.7806 11.715 31.0599 11.6082 31.3518 11.5881C31.4284 11.629 31.4642 11.5881 31.5051 11.7414C31.5122 11.9448 31.4881 12.1482 31.4335 12.3443L31.4284 12.3494ZM31.7708 10.791C31.7299 10.8677 31.7299 10.8677 31.6175 10.8677C31.3411 10.7737 31.0834 10.6319 30.8562 10.4487C30.8467 10.4421 30.8389 10.4333 30.8336 10.4231C30.8282 10.4128 30.8254 10.4015 30.8254 10.3899C30.8254 10.3784 30.8282 10.367 30.8336 10.3568C30.8389 10.3465 30.8467 10.3378 30.8562 10.3312C31.0922 10.1465 31.3795 10.0394 31.6788 10.0246C31.7912 10.0604 31.7912 10.0246 31.827 10.1728C31.8472 10.3786 31.8299 10.5863 31.7759 10.7859L31.7708 10.791ZM38.2853 10.4487C38.506 10.2515 38.7916 10.1424 39.0875 10.1421C39.1999 10.1779 39.1999 10.1421 39.2357 10.2545C39.2815 10.4582 39.2691 10.6707 39.1999 10.8677C39.159 10.9801 39.159 10.9801 39.0466 10.9443C38.7653 10.8593 38.5057 10.7147 38.2853 10.5202C38.2547 10.5151 38.2547 10.4436 38.2904 10.4436L38.2853 10.4487ZM37.943 11.8947C38.1721 11.7151 38.4497 11.6083 38.7401 11.5881C38.8576 11.629 38.8576 11.5881 38.8934 11.7414C38.9382 11.9434 38.9258 12.154 38.8576 12.3494C38.8576 12.426 38.8167 12.426 38.7401 12.426C38.4576 12.3209 38.1897 12.1801 37.943 12.0071C37.9325 12.001 37.9239 11.9921 37.9181 11.9815C37.9123 11.9709 37.9095 11.9589 37.91 11.9468C37.9106 11.9347 37.9144 11.9229 37.9211 11.9129C37.9278 11.9028 37.9371 11.8947 37.9481 11.8896L37.943 11.8947ZM37.6773 13.3406C37.8963 13.1732 38.163 13.0801 38.4386 13.0749C38.5153 13.0749 38.551 13.0749 38.5919 13.1874C38.6153 13.3925 38.6014 13.6002 38.551 13.8005C38.5153 13.8771 38.5153 13.8771 38.3977 13.8771C38.1219 13.782 37.8644 13.6403 37.6364 13.4582C37.6058 13.4122 37.6058 13.3764 37.6824 13.3355L37.6773 13.3406ZM36.497 10.1421C36.7357 9.9564 37.0329 9.86216 37.335 9.87642C37.4065 9.87642 37.4474 9.83555 37.4474 9.98883C37.4872 10.1916 37.4731 10.4013 37.4065 10.5969C37.3707 10.6735 37.3707 10.6735 37.2583 10.6377C36.9831 10.5581 36.7249 10.4282 36.497 10.2545C36.4865 10.2484 36.4779 10.2396 36.4721 10.229C36.4663 10.2183 36.4635 10.2063 36.4641 10.1942C36.4646 10.1821 36.4684 10.1704 36.4751 10.1603C36.4818 10.1502 36.4912 10.1422 36.5021 10.137L36.497 10.1421ZM36.1905 11.675C36.4233 11.508 36.7011 11.4154 36.9875 11.4093C37.0642 11.4093 37.105 11.4093 37.105 11.5217C37.1613 11.7222 37.1613 11.9343 37.105 12.1348C37.0642 12.2114 37.0642 12.2114 36.9518 12.2114C36.6754 12.1175 36.4177 11.9757 36.1905 11.7925C36.1189 11.7516 36.1547 11.7005 36.1956 11.6596L36.1905 11.675ZM35.8839 13.1618C35.9927 13.0655 36.1198 12.9923 36.2577 12.9467C36.3956 12.901 36.5413 12.8838 36.6861 12.8961C36.7985 12.8961 36.8394 12.8552 36.8394 12.9728C36.857 13.1836 36.8397 13.396 36.7883 13.6012C36.7525 13.6779 36.7525 13.6779 36.635 13.6421C36.3451 13.5814 36.08 13.4355 35.8737 13.2231C35.8532 13.2231 35.8532 13.1822 35.889 13.1465L35.8839 13.1618ZM34.627 9.99905C34.8601 9.82193 35.1418 9.72031 35.4342 9.70781C35.5109 9.70781 35.5467 9.70781 35.5875 9.82022C35.6109 10.0254 35.597 10.2331 35.5467 10.4334C35.5109 10.5049 35.5109 10.5049 35.3934 10.5049C35.1152 10.415 34.8568 10.2728 34.6321 10.0859C34.5554 10.0604 34.5963 10.0246 34.6321 9.98372L34.627 9.99905ZM34.3204 11.5625C34.5321 11.3785 34.8066 11.2833 35.0868 11.2969C35.235 11.2969 35.235 11.256 35.2759 11.4093C35.2873 11.607 35.2804 11.8054 35.2554 12.002C35.2197 12.0786 35.1839 12.1195 35.1072 12.0786C34.817 11.9878 34.5454 11.8459 34.3051 11.6596C34.3006 11.6405 34.3001 11.6206 34.3036 11.6013C34.3071 11.582 34.3146 11.5635 34.3255 11.5472L34.3204 11.5625ZM33.1094 13.5655C33.0686 13.6012 33.0686 13.6421 32.9562 13.6012C32.6798 13.5037 32.421 13.3622 32.1897 13.1822C32.1489 13.1465 32.1489 13.1465 32.1897 13.0698C32.4226 12.9029 32.7004 12.8103 32.9868 12.8041C33.1043 12.8041 33.1401 12.8041 33.1401 12.9166C33.1869 13.1318 33.1764 13.3556 33.1094 13.5655ZM33.3751 12.0786C33.3394 12.1195 33.3394 12.1195 33.2219 12.1195C32.9455 12.0256 32.6878 11.8837 32.4605 11.7005C32.4248 11.6596 32.4248 11.6596 32.4605 11.583C32.6978 11.421 32.9757 11.3289 33.2627 11.3173C33.3751 11.3173 33.416 11.3173 33.416 11.4297C33.4386 11.6468 33.4248 11.8661 33.3751 12.0786ZM33.6817 10.5151C33.6817 10.5917 33.6408 10.5917 33.5284 10.556C33.2476 10.4725 32.9879 10.3296 32.7671 10.137C32.7262 10.0961 32.7262 10.0961 32.8029 10.0246C33.0222 9.85717 33.2884 9.76249 33.5642 9.7538C33.6817 9.7538 33.7175 9.7538 33.7583 9.87132C33.7672 10.0886 33.7413 10.306 33.6817 10.5151ZM34.024 13.2231C33.9832 13.2231 33.9832 13.1822 34.024 13.1465C34.1305 13.0482 34.2566 12.9737 34.394 12.9279C34.5314 12.8821 34.677 12.8661 34.8211 12.8808C34.9386 12.8808 34.9744 12.8399 34.9744 12.9574C34.999 13.1725 34.9869 13.3902 34.9386 13.6012C34.8978 13.6779 34.8978 13.6779 34.7854 13.6421C34.4955 13.5814 34.2304 13.4355 34.024 13.2231Z" fill="white"/>
<path d="M38.3211 28.7307C34.8926 28.7307 32.4196 31.3212 32.4196 34.8621C32.4196 38.403 34.9744 40.9577 38.3211 40.9577C39.8617 40.8398 41.301 40.1445 42.351 39.011C43.4011 37.8775 43.9845 36.3893 43.9845 34.8442C43.9845 33.2991 43.4011 31.8109 42.351 30.6774C41.301 29.5439 39.8617 28.8487 38.3211 28.7307ZM38.4386 38.2905C36.686 38.2905 35.3116 36.7577 35.3116 34.8263C35.3116 32.895 36.6452 31.4745 38.4386 31.4745C40.232 31.4745 41.5043 32.8847 41.5043 34.8263C41.5043 36.7679 40.1554 38.2905 38.4437 38.2905H38.4386Z" fill="white"/>
<path d="M66.6376 31.3212C66.7181 31.2486 66.7831 31.1604 66.8287 31.0621C66.8744 30.9638 66.8997 30.8573 66.9033 30.749V28.884H57.8749C57.5106 28.871 57.152 28.9768 56.853 29.1855C56.7105 29.3278 56.6297 29.5205 56.6282 29.722V31.6227H60.2917V40.8197H63.2603V31.6227H65.6209C65.9835 31.6349 66.3403 31.5291 66.6376 31.3212Z" fill="white"/>
</svg>
