<svg width="77" height="55" viewBox="0 0 77 55" fill="none" xmlns="http://www.w3.org/2000/svg">
<path fill-rule="evenodd" clip-rule="evenodd" d="M24.9441 26.9047L10.3524 27.4243L24.2074 28.1943L24.9441 26.9047ZM23.1986 29.9709L8.57237 30.4912L22.4789 31.2639L23.1986 29.9709ZM21.4532 33.0629L6.84525 33.5758L20.7348 34.3477L21.4532 33.0629ZM19.7437 36.1393L5.11745 36.6603L18.9907 37.4309L19.7437 36.1393ZM37.6234 11.4278L18.9995 12.0905L37.6763 13.1284L37.6234 11.4278ZM37.5054 8.38461L20.7748 8.9714L37.5583 9.934L37.5054 8.38461ZM37.386 5.44932L22.4796 5.93978L37.4579 6.77145L37.386 5.44932ZM37.2856 2.43601L24.2196 2.87288L37.3371 3.64758L37.2856 2.43601ZM37.2008 0H25.8368L37.2178 0.603746L37.2008 0ZM17.9813 39.2143L3.39033 39.7428H17.6835L17.9813 39.2143Z" fill="white"/>
<path fill-rule="evenodd" clip-rule="evenodd" d="M67.4302 0.0983593H46.4022L45.8059 1.1539L56.3287 1.71219C56.4522 1.71219 56.4522 1.88721 56.2758 1.88721L45.1926 2.2576L44.1235 4.12853L54.5744 4.74584C54.7149 4.76348 54.6803 4.95614 54.5575 4.95614L43.456 5.3211L42.4229 7.11266L52.8568 7.69199C53.0847 7.70963 53.0847 7.90296 52.8568 7.90296L41.7737 8.29166L40.7215 10.1653L51.1209 10.7616C51.3488 10.7792 51.3318 10.9895 51.1209 10.9895L40.0377 11.3843L38.9673 13.2349L49.3836 13.8136C49.541 13.8312 49.56 14.0245 49.349 14.0245L17.4135 15.0943L47.7182 16.778C47.9102 16.778 47.8932 17.0236 47.6822 17.0236L15.6952 18.1639L45.9999 19.847C46.1403 19.847 46.1749 20.0749 45.9639 20.0749L13.924 21.2322L44.2287 22.9159C44.3521 22.9335 44.4736 23.1614 44.2117 23.1791L12.2227 24.3174L42.5266 26.0004C42.6142 26.0181 42.7017 26.246 42.4921 26.246L26.3924 26.8199L26.4453 28.2729L40.7907 29.07C40.8952 29.0877 40.9481 29.298 40.7547 29.298L26.4982 29.8047L26.5681 31.4301L39.0202 32.122C39.1423 32.1396 39.1952 32.3852 38.9842 32.3852L26.6379 32.8187L26.6915 34.6021L37.3019 35.1916C37.424 35.2086 37.4592 35.4365 37.249 35.4365L26.7444 35.8116L26.8143 37.7735L35.5829 38.2605C35.7063 38.2782 35.7064 38.4891 35.5307 38.4891L26.8496 38.8032L26.8849 39.6464H55.1904C62.6958 39.6464 69.4293 34.1747 70.6924 29.825C71.9562 25.476 71.9562 21.5476 65.9228 19.5837C69.2909 18.8118 75.1472 15.0136 76.3052 9.76236C77.3553 4.99141 75.6024 0.115997 67.4302 0.0983593ZM53.1926 30.557H44.4946L49.4046 21.8583H55.8586C62.5229 21.8583 59.2952 30.557 53.1926 30.557ZM64.4508 11.8958C64.1699 12.948 62.0643 15.614 59.4003 15.614H52.9464L57.0844 8.3188H60.3819C64.5898 8.45922 64.7303 10.8444 64.4508 11.8958Z" fill="white"/>
<path fill-rule="evenodd" clip-rule="evenodd" d="M71.6705 50.4325C71.6705 48.5289 70.088 46.9345 68.1844 46.9345C66.2315 46.9345 64.6371 48.5542 64.6371 50.5439C64.6351 51.012 64.7258 51.4758 64.904 51.9086C65.0822 52.3414 65.3444 52.7346 65.6754 53.0655C66.0064 53.3965 66.3996 53.6586 66.8324 53.8367C67.2652 54.0149 67.729 54.1056 68.1971 54.1036C69.6424 54.1036 71.0146 53.1148 71.4226 51.7675H69.6179C69.2594 52.336 68.7905 52.5953 68.1469 52.5953C67.3313 52.5953 66.6027 52.0391 66.3674 51.248H71.5831C71.6456 50.8653 71.6705 50.6795 71.6705 50.4325ZM66.3184 49.9559C66.5532 49.0288 67.2949 48.4354 68.2093 48.4354C69.1245 48.4354 69.8413 49.0166 70.0634 49.9559H66.3184ZM48.2387 47.2643V47.8194C47.7201 47.2632 46.9684 46.9468 46.1647 46.9468C44.3849 46.9468 42.8675 48.4668 42.8675 50.4447C42.8675 52.3107 44.2098 53.9844 46.2 53.9844C47.0776 53.9844 47.745 53.7818 48.3751 53.065V53.9427H49.8837V47.2643H48.2387ZM46.3965 52.5689C45.8468 52.5689 45.3196 52.3505 44.9309 51.9618C44.5422 51.5731 44.3238 51.046 44.3238 50.4962C44.3238 49.9465 44.5422 49.4193 44.9309 49.0306C45.3196 48.6419 45.8468 48.4236 46.3965 48.4236C46.9462 48.4236 47.4734 48.6419 47.8621 49.0306C48.2508 49.4193 48.4692 49.9465 48.4692 50.4962C48.4692 51.046 48.2508 51.5731 47.8621 51.9618C47.4734 52.3505 46.9462 52.5689 46.3965 52.5689ZM3.28801 46.9341C2.60842 46.9341 2.08934 47.169 1.52046 47.7501V47.095H0V53.9427H1.6442V50.7163C1.6442 49.8391 1.71813 48.4419 2.92945 48.4419C4.06644 48.4419 4.19018 49.7521 4.19018 50.5926V53.9423H5.83399V50.2712C5.83399 49.307 5.76006 48.8499 5.50032 48.306C5.11724 47.4904 4.21508 46.9341 3.28801 46.9341ZM13.5026 50.4325C13.5026 48.5289 11.9204 46.9345 10.0169 46.9345C8.06393 46.9345 6.46953 48.5542 6.46953 50.5439C6.4676 51.0119 6.55836 51.4757 6.73657 51.9084C6.91477 52.3412 7.1769 52.7343 7.50782 53.0653C7.83875 53.3962 8.23192 53.6583 8.66467 53.8365C9.09741 54.0147 9.56115 54.1055 10.0291 54.1036C11.4753 54.1036 12.8471 53.1148 13.2551 51.7675H11.4508C11.0922 52.336 10.6225 52.5953 9.97973 52.5953C9.16414 52.5953 8.43475 52.0391 8.19992 51.248H13.4156C13.4781 50.8653 13.5026 50.6795 13.5026 50.4325ZM8.15089 49.9559C8.38572 49.0288 9.12737 48.4354 10.0422 48.4354C10.957 48.4354 11.6737 49.0166 11.8963 49.9559H8.15089ZM40.5502 53.9369H42.1941V44.8027H40.5502V53.9369ZM54.2206 46.9341C53.5406 46.9341 53.0212 47.169 52.4527 47.7501V47.095H50.9322V53.9427H52.5768V50.7163C52.5768 49.8391 52.6507 48.4419 53.862 48.4419C54.9987 48.4419 55.1228 49.7521 55.1228 50.5926V53.9423H56.7666V50.2712C56.7666 49.307 56.6927 48.8499 56.4329 48.306C56.0498 47.4904 55.1477 46.9341 54.2206 46.9341ZM60.8702 48.4423C61.6237 48.4423 62.0562 48.6898 62.4646 49.3817H64.3179C63.8115 47.911 62.514 46.9341 60.9315 46.9341C58.9291 46.9341 57.3221 48.5285 57.3221 50.4941C57.3221 52.4716 58.9414 54.1032 60.9315 54.1032C61.4391 54.1005 61.9406 53.9926 62.4043 53.7862C62.8681 53.5798 63.284 53.2794 63.6257 52.9041C63.972 52.521 64.0958 52.2985 64.3179 51.6932H62.4646C62.0807 52.2862 61.5869 52.595 60.969 52.595C59.819 52.595 58.9666 51.7051 58.9666 50.5183C58.9666 49.32 59.7822 48.4423 60.8702 48.4423ZM19.7859 51.2729L18.6217 47.0954H17.2989L16.1221 51.2729L14.7304 47.0954H13.28L15.5662 53.9427H16.6193L17.9544 49.5058L19.2519 53.9427H20.3571L22.5495 47.0954H21.1903L19.7859 51.2729ZM28.5934 46.9414C27.7901 46.9414 27.0385 47.2578 26.5194 47.8137V44.803H24.8752V53.9369H26.383V53.0596C27.0136 53.7764 27.6809 53.9787 28.5586 53.9787C30.5487 53.9787 31.891 52.3054 31.891 50.439C31.8914 48.4615 30.3736 46.9414 28.5934 46.9414ZM28.3617 52.5689C27.8119 52.5689 27.2847 52.3505 26.896 51.9618C26.5073 51.5731 26.289 51.046 26.289 50.4962C26.289 49.9465 26.5073 49.4193 26.896 49.0306C27.2847 48.6419 27.8119 48.4236 28.3617 48.4236C28.9114 48.4236 29.4386 48.6419 29.8273 49.0306C30.216 49.4193 30.4343 49.9465 30.4343 50.4962C30.4343 51.046 30.216 51.5731 29.8273 51.9618C29.4386 52.3505 28.9114 52.5689 28.3617 52.5689ZM37.8077 47.2643V47.8194C37.2887 47.2632 36.5374 46.9468 35.7337 46.9468C33.9539 46.9468 32.4358 48.4668 32.4358 50.4447C32.4358 52.3107 33.7785 53.9844 35.7682 53.9844C36.6459 53.9844 37.3132 53.7818 37.9437 53.065V53.9427H39.4516V47.2643H37.8077ZM35.9659 52.5689C35.4162 52.5689 34.889 52.3505 34.5003 51.9618C34.1116 51.5731 33.8932 51.046 33.8932 50.4962C33.8932 49.9465 34.1116 49.4193 34.5003 49.0306C34.889 48.6419 35.4162 48.4236 35.9659 48.4236C36.5156 48.4236 37.0428 48.6419 37.4315 49.0306C37.8202 49.4193 38.0386 49.9465 38.0386 50.4962C38.0386 51.046 37.8202 51.5731 37.4315 51.9618C37.0428 52.3505 36.5156 52.5689 35.9659 52.5689Z" fill="white"/>
</svg>
