<svg width="77" height="41" viewBox="0 0 77 41" fill="none" xmlns="http://www.w3.org/2000/svg">
<path d="M23.5127 20.9279H18.1963L18.8081 11.6873L15.3482 20.9279H10.4325L18.2596 0.0628357H23.5127L22.9009 9.40886L26.4241 0.0628357H31.3609L23.5127 20.9279Z" fill="white"/>
<path d="M24.1674 20.9279L31.9945 0.0628357H36.9312L29.1042 20.9279H24.1674Z" fill="white"/>
<path d="M9.86325 13.7344C2.96449 21.8356 -3.53342 32.6163 2.20499 37.5741C7.77463 42.3842 14.7367 39.5361 19.4835 37.6374C24.2304 35.7386 76.6778 12.9538 76.6778 12.9538C77.1842 12.7006 77.0787 12.3841 76.4669 12.5529C76.2137 12.6162 19.357 28.0171 19.357 28.0171C12.1417 30.0424 3.91386 25.6331 9.86325 13.7344Z" fill="white"/>
<path d="M62.501 0C61.8892 0 61.404 0.421942 61.404 1.05486C61.404 1.68777 61.8892 2.10971 62.501 2.10971C63.1129 2.10971 63.5981 1.68777 63.5981 1.05486C63.5981 0.421942 63.1129 0 62.501 0ZM62.501 1.79325C62.058 1.79325 61.7415 1.4768 61.7415 1.03376C61.7415 0.611818 62.058 0.274263 62.501 0.274263C62.9441 0.274263 63.2605 0.590721 63.2605 1.03376C63.2605 1.4768 62.9441 1.79325 62.501 1.79325Z" fill="white"/>
<path d="M62.6909 1.11802C62.8386 1.11802 62.9652 1.03363 62.9652 0.822663C62.9652 0.5484 62.7964 0.485107 62.4799 0.485107H62.058V1.62435H62.3533V1.11802H62.3955L62.6487 1.60326H62.9863L62.6909 1.11802ZM62.5221 0.928148H62.3533V0.67498H62.501C62.5854 0.67498 62.6909 0.674981 62.6909 0.801564C62.6698 0.90705 62.6065 0.928148 62.5221 0.928148Z" fill="white"/>
<path d="M59.2517 3.52326L60.5809 0.0422363H50.6863H50.6441H45.5175L40.3487 6.30808L42.7327 0.0422363H37.7327L29.9689 20.9284H34.9057L38.2179 12.1942L38.45 20.9284L53.5977 20.8862L55.0323 16.8777H49.2728L51.1716 11.8144H55.9184L57.3741 7.93256H52.6273L54.2517 3.54436H59.2517V3.52326ZM43.3445 19.536L43.0281 8.64986L50.4964 0.464179L43.3445 19.536Z" fill="white"/>
</svg>
