<svg width="375" height="84" viewBox="0 0 375 84" fill="none" xmlns="http://www.w3.org/2000/svg">
<g filter="url(#filter0_bd)">
<rect y="1" width="375" height="83" fill="white"/>
</g>
<path d="M321.987 50H321.045V43.6621H317.539V50H316.601V42.8906H321.987V50ZM328.137 47.417C328.137 48.221 327.954 48.8688 327.586 49.3604C327.218 49.8519 326.72 50.0977 326.092 50.0977C325.45 50.0977 324.946 49.8942 324.578 49.4873V52.0312H323.675V44.7168H324.5L324.544 45.3027C324.912 44.847 325.423 44.6191 326.077 44.6191C326.712 44.6191 327.213 44.8584 327.581 45.3369C327.952 45.8154 328.137 46.4811 328.137 47.334V47.417ZM327.234 47.3145C327.234 46.7188 327.107 46.2484 326.853 45.9033C326.599 45.5583 326.251 45.3857 325.808 45.3857C325.262 45.3857 324.851 45.6283 324.578 46.1133V48.6377C324.848 49.1195 325.262 49.3604 325.818 49.3604C326.251 49.3604 326.595 49.1895 326.848 48.8477C327.106 48.5026 327.234 47.9915 327.234 47.3145ZM329.171 47.3096C329.171 46.792 329.271 46.3265 329.473 45.9131C329.678 45.4997 329.962 45.1807 330.323 44.9561C330.688 44.7314 331.103 44.6191 331.568 44.6191C332.287 44.6191 332.869 44.8682 333.311 45.3662C333.757 45.8643 333.98 46.5267 333.98 47.3535V47.417C333.98 47.9313 333.881 48.3936 333.682 48.8037C333.487 49.2106 333.205 49.528 332.838 49.7559C332.473 49.9837 332.053 50.0977 331.578 50.0977C330.862 50.0977 330.281 49.8486 329.835 49.3506C329.392 48.8525 329.171 48.1934 329.171 47.373V47.3096ZM330.079 47.417C330.079 48.0029 330.214 48.4733 330.484 48.8281C330.757 49.1829 331.122 49.3604 331.578 49.3604C332.037 49.3604 332.401 49.1813 332.672 48.8232C332.942 48.4619 333.077 47.9574 333.077 47.3096C333.077 46.7301 332.938 46.2614 332.662 45.9033C332.388 45.542 332.024 45.3613 331.568 45.3613C331.122 45.3613 330.762 45.5387 330.489 45.8936C330.216 46.2484 330.079 46.7562 330.079 47.417ZM335.038 47.4561C335.038 46.5739 335.209 45.8805 335.55 45.376C335.892 44.8714 336.361 44.6191 336.957 44.6191C337.233 44.6191 337.476 44.6663 337.684 44.7607V42.5H338.587V44.79C338.815 44.6761 339.082 44.6191 339.388 44.6191C339.987 44.6191 340.458 44.8714 340.799 45.376C341.141 45.8805 341.312 46.6081 341.312 47.5586C341.312 48.3366 341.141 48.9551 340.799 49.4141C340.461 49.873 339.994 50.1025 339.398 50.1025C339.082 50.1025 338.812 50.0505 338.587 49.9463V52.0312H337.684V49.9609C337.469 50.0553 337.224 50.1025 336.947 50.1025C336.354 50.1025 335.887 49.873 335.545 49.4141C335.207 48.9551 335.038 48.3268 335.038 47.5293V47.4561ZM340.409 47.4561C340.409 46.792 340.295 46.2777 340.067 45.9131C339.839 45.5452 339.525 45.3613 339.125 45.3613C338.919 45.3613 338.74 45.3939 338.587 45.459V49.2822C338.734 49.3376 338.916 49.3652 339.134 49.3652C339.538 49.3652 339.85 49.209 340.072 48.8965C340.296 48.584 340.409 48.1038 340.409 47.4561ZM335.941 47.5586C335.941 48.151 336.047 48.6003 336.258 48.9062C336.47 49.2122 336.774 49.3652 337.171 49.3652C337.36 49.3652 337.531 49.3359 337.684 49.2773V45.4443C337.547 45.389 337.38 45.3613 337.181 45.3613C336.784 45.3613 336.478 45.5387 336.263 45.8936C336.048 46.2484 335.941 46.8034 335.941 47.5586ZM346.027 44.7168H346.93V50H346.027V46.1475L343.59 50H342.687V44.7168H343.59V48.5742L346.027 44.7168ZM352.831 44.7168V50H351.923V45.4639H350.126L350.019 47.4414C349.96 48.3496 349.807 48.999 349.56 49.3896C349.316 49.7803 348.927 49.9837 348.393 50H348.032V49.2041L348.29 49.1846C348.583 49.152 348.793 48.9827 348.92 48.6768C349.047 48.3708 349.129 47.8044 349.164 46.9775L349.262 44.7168H352.831ZM355.388 46.5381H356.76C357.359 46.5446 357.833 46.7008 358.181 47.0068C358.529 47.3128 358.703 47.7279 358.703 48.252C358.703 48.7793 358.524 49.2025 358.166 49.5215C357.808 49.8405 357.326 50 356.721 50H354.485V44.7168H355.388V46.5381ZM355.388 47.2754V49.2627H356.731C357.069 49.2627 357.331 49.1764 357.517 49.0039C357.702 48.8281 357.795 48.5889 357.795 48.2861C357.795 47.9932 357.704 47.7539 357.522 47.5684C357.343 47.3796 357.09 47.2819 356.765 47.2754H355.388Z" fill="#007AFF"/>
<path d="M337 24.5C340.727 24.5 343.75 21.4766 343.75 17.75C343.75 14.0234 340.727 11 337 11C333.273 11 330.25 14.0234 330.25 17.75C330.25 21.4766 333.273 24.5 337 24.5ZM343 26H340.417C339.377 26.4781 338.219 26.75 337 26.75C335.781 26.75 334.628 26.4781 333.583 26H331C327.686 26 325 28.6859 325 32V32.75C325 33.9922 326.008 35 327.25 35H346.75C347.992 35 349 33.9922 349 32.75V32C349 28.6859 346.314 26 343 26Z" fill="#007AFF"/>
<path d="M22.1694 50H21.227V43.6621H17.7212V50H16.7837V42.8906H22.1694V50ZM23.6175 47.3096C23.6175 46.792 23.7185 46.3265 23.9203 45.9131C24.1254 45.4997 24.4086 45.1807 24.7699 44.9561C25.1345 44.7314 25.5495 44.6191 26.015 44.6191C26.7344 44.6191 27.3155 44.8682 27.7582 45.3662C28.2041 45.8643 28.4271 46.5267 28.4271 47.3535V47.417C28.4271 47.9313 28.3278 48.3936 28.1293 48.8037C27.9339 49.2106 27.6524 49.528 27.2845 49.7559C26.9199 49.9837 26.5 50.0977 26.0248 50.0977C25.3086 50.0977 24.7276 49.8486 24.2816 49.3506C23.8389 48.8525 23.6175 48.1934 23.6175 47.373V47.3096ZM24.5257 47.417C24.5257 48.0029 24.6608 48.4733 24.931 48.8281C25.2045 49.1829 25.569 49.3604 26.0248 49.3604C26.4838 49.3604 26.8483 49.1813 27.1185 48.8232C27.3887 48.4619 27.5238 47.9574 27.5238 47.3096C27.5238 46.7301 27.3854 46.2614 27.1088 45.9033C26.8353 45.542 26.4707 45.3613 26.015 45.3613C25.569 45.3613 25.2093 45.5387 24.9359 45.8936C24.6625 46.2484 24.5257 46.7562 24.5257 47.417ZM29.2844 49.2627L29.5969 48.877C29.9485 48.4212 30.1487 47.7376 30.1975 46.8262L30.2805 44.7168H33.6838V49.2627H34.3625V51.5527H33.4592V50H29.7727V51.5527H28.8694L28.8743 49.2627H29.2844ZM30.3538 49.2627H32.7805V45.5518H31.1545L31.1008 46.8115C31.0455 47.863 30.7965 48.68 30.3538 49.2627ZM37.8029 45.0195C38.4669 45.0195 38.9975 45.2425 39.3946 45.6885C39.795 46.1312 39.9952 46.7155 39.9952 47.4414V47.5244C39.9952 48.0225 39.8992 48.4684 39.7071 48.8623C39.5151 49.2529 39.2384 49.5573 38.8771 49.7754C38.519 49.9902 38.1056 50.0977 37.6368 50.0977C36.9272 50.0977 36.3559 49.8617 35.923 49.3896C35.49 48.9144 35.2736 48.278 35.2736 47.4805V47.041C35.2736 45.931 35.4786 45.0488 35.8888 44.3945C36.3022 43.7402 36.9109 43.3415 37.715 43.1982C38.1707 43.1169 38.4783 43.0176 38.6378 42.9004C38.7973 42.7832 38.8771 42.6221 38.8771 42.417H39.6193C39.6193 42.8239 39.5265 43.1413 39.3409 43.3691C39.1586 43.597 38.8657 43.7581 38.462 43.8525L37.7882 44.0039C37.2511 44.1309 36.8474 44.3457 36.5773 44.6484C36.3103 44.9479 36.1362 45.3483 36.0548 45.8496C36.5333 45.2962 37.116 45.0195 37.8029 45.0195ZM37.6271 45.7617C37.1844 45.7617 36.8328 45.9115 36.5724 46.2109C36.312 46.5072 36.1818 46.9189 36.1818 47.4463V47.5244C36.1818 48.0908 36.312 48.54 36.5724 48.8721C36.8361 49.2008 37.1909 49.3652 37.6368 49.3652C38.0861 49.3652 38.4409 49.1992 38.7013 48.8672C38.9617 48.5352 39.0919 48.0501 39.0919 47.4121C39.0919 46.9141 38.9601 46.5153 38.6964 46.2158C38.436 45.9131 38.0795 45.7617 37.6271 45.7617ZM40.8916 47.3096C40.8916 46.792 40.9925 46.3265 41.1943 45.9131C41.3994 45.4997 41.6826 45.1807 42.0439 44.9561C42.4085 44.7314 42.8236 44.6191 43.2891 44.6191C44.0085 44.6191 44.5895 44.8682 45.0322 45.3662C45.4782 45.8643 45.7012 46.5267 45.7012 47.3535V47.417C45.7012 47.9313 45.6019 48.3936 45.4033 48.8037C45.208 49.2106 44.9264 49.528 44.5586 49.7559C44.194 49.9837 43.7741 50.0977 43.2988 50.0977C42.5827 50.0977 42.0016 49.8486 41.5557 49.3506C41.113 48.8525 40.8916 48.1934 40.8916 47.373V47.3096ZM41.7998 47.417C41.7998 48.0029 41.9349 48.4733 42.2051 48.8281C42.4785 49.1829 42.8431 49.3604 43.2988 49.3604C43.7578 49.3604 44.1224 49.1813 44.3926 48.8232C44.6628 48.4619 44.7979 47.9574 44.7979 47.3096C44.7979 46.7301 44.6595 46.2614 44.3828 45.9033C44.1094 45.542 43.7448 45.3613 43.2891 45.3613C42.8431 45.3613 42.4834 45.5387 42.21 45.8936C41.9365 46.2484 41.7998 46.7562 41.7998 47.417ZM51.4169 47.417C51.4169 48.221 51.233 48.8688 50.8651 49.3604C50.4973 49.8519 49.9992 50.0977 49.371 50.0977C48.7297 50.0977 48.2251 49.8942 47.8573 49.4873V52.0312H46.954V44.7168H47.7792L47.8231 45.3027C48.191 44.847 48.702 44.6191 49.3563 44.6191C49.9911 44.6191 50.4924 44.8584 50.8602 45.3369C51.2313 45.8154 51.4169 46.4811 51.4169 47.334V47.417ZM50.5136 47.3145C50.5136 46.7188 50.3866 46.2484 50.1327 45.9033C49.8788 45.5583 49.5305 45.3857 49.0878 45.3857C48.5409 45.3857 48.1307 45.6283 47.8573 46.1133V48.6377C48.1275 49.1195 48.5409 49.3604 49.0975 49.3604C49.5305 49.3604 49.8739 49.1895 50.1278 48.8477C50.385 48.5026 50.5136 47.9915 50.5136 47.3145ZM54.3347 47.749H53.6755V50H52.7673V44.7168H53.6755V46.9531H54.2664L56.0437 44.7168H57.1375L55.0476 47.2559L57.3132 50H56.1658L54.3347 47.749ZM61.4713 50C61.4192 49.8958 61.3769 49.7103 61.3444 49.4434C60.9245 49.8796 60.4232 50.0977 59.8405 50.0977C59.3196 50.0977 58.8916 49.9512 58.5563 49.6582C58.2243 49.362 58.0582 48.9876 58.0582 48.5352C58.0582 47.985 58.2666 47.5586 58.6832 47.2559C59.1032 46.9499 59.6924 46.7969 60.4508 46.7969H61.3297V46.3818C61.3297 46.0661 61.2353 45.8154 61.0465 45.6299C60.8577 45.4411 60.5794 45.3467 60.2116 45.3467C59.8893 45.3467 59.6191 45.4281 59.401 45.5908C59.1829 45.7536 59.0739 45.9505 59.0739 46.1816H58.1657C58.1657 45.918 58.2584 45.6641 58.444 45.4199C58.6328 45.1725 58.8867 44.9772 59.2057 44.834C59.528 44.6908 59.8812 44.6191 60.2653 44.6191C60.874 44.6191 61.3509 44.7721 61.6959 45.0781C62.041 45.3809 62.22 45.7992 62.233 46.333V48.7646C62.233 49.2497 62.2949 49.6354 62.4186 49.9219V50H61.4713ZM59.9723 49.3115C60.2555 49.3115 60.5241 49.2383 60.778 49.0918C61.0319 48.9453 61.2158 48.7549 61.3297 48.5205V47.4365H60.6217C59.5149 47.4365 58.9616 47.7604 58.9616 48.4082C58.9616 48.6914 59.056 48.9128 59.2448 49.0723C59.4336 49.2318 59.6761 49.3115 59.9723 49.3115Z" fill="#007AFF"/>
<path d="M48.075 19.8145C44.4605 13.4032 33.8589 12 33.8589 12C33.8589 12 38.7508 17.3419 32.4992 21.5661C28.546 24.2323 26.9831 27.6968 28.6766 31.4806C29.9734 34.379 32.717 35.5597 35.6734 36C34.2605 33.3339 35.3541 30.0774 35.475 29.729C38.2379 33.9097 43.4589 29.729 40.8363 25.1855C44.2718 25.9306 44.7847 31.8919 42.1476 35.6129C46.0428 34.3887 48.6363 31.3113 49.3476 28.5677C50.0976 25.6984 49.5266 22.379 48.075 19.8145V19.8145Z" fill="#007AFF"/>
<path d="M169.917 46.8066H169.053V50H168.115V42.8906H169.053V46.0254H169.785L172.27 42.8906H173.437L170.723 46.3379L173.638 50H172.49L169.917 46.8066ZM174.099 47.3096C174.099 46.792 174.2 46.3265 174.402 45.9131C174.607 45.4997 174.89 45.1807 175.252 44.9561C175.616 44.7314 176.031 44.6191 176.497 44.6191C177.216 44.6191 177.797 44.8682 178.24 45.3662C178.686 45.8643 178.909 46.5267 178.909 47.3535V47.417C178.909 47.9313 178.81 48.3936 178.611 48.8037C178.416 49.2106 178.134 49.528 177.766 49.7559C177.402 49.9837 176.982 50.0977 176.507 50.0977C175.79 50.0977 175.209 49.8486 174.763 49.3506C174.321 48.8525 174.099 48.1934 174.099 47.373V47.3096ZM175.008 47.417C175.008 48.0029 175.143 48.4733 175.413 48.8281C175.686 49.1829 176.051 49.3604 176.507 49.3604C176.966 49.3604 177.33 49.1813 177.6 48.8232C177.871 48.4619 178.006 47.9574 178.006 47.3096C178.006 46.7301 177.867 46.2614 177.591 45.9033C177.317 45.542 176.953 45.3613 176.497 45.3613C176.051 45.3613 175.691 45.5387 175.418 45.8936C175.144 46.2484 175.008 46.7562 175.008 47.417ZM184.625 47.417C184.625 48.221 184.441 48.8688 184.073 49.3604C183.705 49.8519 183.207 50.0977 182.579 50.0977C181.938 50.0977 181.433 49.8942 181.065 49.4873V52.0312H180.162V44.7168H180.987L181.031 45.3027C181.399 44.847 181.91 44.6191 182.564 44.6191C183.199 44.6191 183.7 44.8584 184.068 45.3369C184.439 45.8154 184.625 46.4811 184.625 47.334V47.417ZM183.721 47.3145C183.721 46.7188 183.594 46.2484 183.341 45.9033C183.087 45.5583 182.738 45.3857 182.296 45.3857C181.749 45.3857 181.339 45.6283 181.065 46.1133V48.6377C181.335 49.1195 181.749 49.3604 182.305 49.3604C182.738 49.3604 183.082 49.1895 183.336 48.8477C183.593 48.5026 183.721 47.9915 183.721 47.3145ZM188.802 46.1621C188.802 45.9147 188.708 45.7194 188.519 45.5762C188.33 45.4297 188.072 45.3564 187.743 45.3564C187.424 45.3564 187.157 45.4395 186.942 45.6055C186.73 45.7715 186.625 45.9668 186.625 46.1914H185.726C185.726 45.7324 185.918 45.3564 186.302 45.0635C186.686 44.7705 187.167 44.624 187.743 44.624C188.361 44.624 188.843 44.7575 189.188 45.0244C189.533 45.2881 189.706 45.6657 189.706 46.1572C189.706 46.3949 189.634 46.613 189.491 46.8115C189.348 47.0101 189.144 47.168 188.88 47.2852C189.496 47.4935 189.803 47.9036 189.803 48.5156C189.803 49.0007 189.616 49.3848 189.242 49.668C188.867 49.9512 188.368 50.0928 187.743 50.0928C187.134 50.0928 186.631 49.9447 186.234 49.6484C185.84 49.349 185.643 48.9453 185.643 48.4375H186.542C186.542 48.6947 186.655 48.916 186.883 49.1016C187.114 49.2839 187.401 49.375 187.743 49.375C188.088 49.375 188.366 49.2952 188.578 49.1357C188.789 48.9762 188.895 48.7695 188.895 48.5156C188.895 48.2194 188.806 48.0078 188.627 47.8809C188.451 47.7507 188.176 47.6855 187.801 47.6855H186.898V46.9238H187.879C188.495 46.9076 188.802 46.6536 188.802 46.1621ZM194.513 44.7168H195.416V50H194.513V46.1475L192.077 50H191.173V44.7168H192.077V48.5742L194.513 44.7168ZM201.303 50H200.4V47.7441H197.973V50H197.065V44.7168H197.973V47.0068H200.4V44.7168H201.303V50ZM206.14 50C206.088 49.8958 206.045 49.7103 206.013 49.4434C205.593 49.8796 205.092 50.0977 204.509 50.0977C203.988 50.0977 203.56 49.9512 203.225 49.6582C202.893 49.362 202.727 48.9876 202.727 48.5352C202.727 47.985 202.935 47.5586 203.352 47.2559C203.772 46.9499 204.361 46.7969 205.119 46.7969H205.998V46.3818C205.998 46.0661 205.904 45.8154 205.715 45.6299C205.526 45.4411 205.248 45.3467 204.88 45.3467C204.558 45.3467 204.288 45.4281 204.07 45.5908C203.851 45.7536 203.742 45.9505 203.742 46.1816H202.834C202.834 45.918 202.927 45.6641 203.113 45.4199C203.301 45.1725 203.555 44.9772 203.874 44.834C204.196 44.6908 204.55 44.6191 204.934 44.6191C205.543 44.6191 206.019 44.7721 206.364 45.0781C206.71 45.3809 206.889 45.7992 206.902 46.333V48.7646C206.902 49.2497 206.963 49.6354 207.087 49.9219V50H206.14ZM204.641 49.3115C204.924 49.3115 205.193 49.2383 205.446 49.0918C205.7 48.9453 205.884 48.7549 205.998 48.5205V47.4365H205.29C204.183 47.4365 203.63 47.7604 203.63 48.4082C203.63 48.6914 203.724 48.9128 203.913 49.0723C204.102 49.2318 204.345 49.3115 204.641 49.3115Z" fill="#007AFF"/>
<path d="M197.25 18.5625V35.0625C197.25 35.5803 196.83 36 196.312 36C195.795 36 195.375 35.5803 195.375 35.0625V19.5H193.5V22.3125C193.5 22.8303 193.08 23.25 192.562 23.25C192.045 23.25 191.625 22.8303 191.625 22.3125V19.5H182.625V22.3125C182.625 22.8303 182.205 23.25 181.688 23.25C181.17 23.25 180.75 22.8303 180.75 22.3125V19.5H178.875V34.125H196.312C196.83 34.125 196.312 34.5447 196.312 35.0625C196.312 35.5803 196.83 36 196.312 36H177.938C177.42 36 177 35.5803 177 35.0625V18.5625C177 18.0447 177.42 17.625 177.938 17.625H180.794C181.167 14.462 183.864 12 187.125 12C190.386 12 193.083 14.462 193.456 17.625H196.312C196.83 17.625 197.25 18.0447 197.25 18.5625ZM191.562 17.625C191.204 15.4995 189.351 13.875 187.125 13.875C184.899 13.875 183.046 15.4995 182.688 17.625H191.562Z" fill="#007AFF"/>
<path d="M178 19H196V35H178V19Z" fill="#007AFF"/>
<path d="M244.643 42.8906H245.58V50H244.643V44.5215L241.142 50H240.199V42.8906H241.142V48.3691L244.643 42.8906ZM250.173 46.1621C250.173 45.9147 250.078 45.7194 249.89 45.5762C249.701 45.4297 249.442 45.3564 249.113 45.3564C248.794 45.3564 248.527 45.4395 248.312 45.6055C248.101 45.7715 247.995 45.9668 247.995 46.1914H247.097C247.097 45.7324 247.289 45.3564 247.673 45.0635C248.057 44.7705 248.537 44.624 249.113 44.624C249.732 44.624 250.213 44.7575 250.559 45.0244C250.904 45.2881 251.076 45.6657 251.076 46.1572C251.076 46.3949 251.004 46.613 250.861 46.8115C250.718 47.0101 250.515 47.168 250.251 47.2852C250.866 47.4935 251.174 47.9036 251.174 48.5156C251.174 49.0007 250.987 49.3848 250.612 49.668C250.238 49.9512 249.738 50.0928 249.113 50.0928C248.504 50.0928 248.002 49.9447 247.604 49.6484C247.211 49.349 247.014 48.9453 247.014 48.4375H247.912C247.912 48.6947 248.026 48.916 248.254 49.1016C248.485 49.2839 248.771 49.375 249.113 49.375C249.458 49.375 249.737 49.2952 249.948 49.1357C250.16 48.9762 250.266 48.7695 250.266 48.5156C250.266 48.2194 250.176 48.0078 249.997 47.8809C249.821 47.7507 249.546 47.6855 249.172 47.6855H248.268V46.9238H249.25C249.865 46.9076 250.173 46.6536 250.173 46.1621ZM254.785 45.0195C255.449 45.0195 255.98 45.2425 256.377 45.6885C256.777 46.1312 256.977 46.7155 256.977 47.4414V47.5244C256.977 48.0225 256.881 48.4684 256.689 48.8623C256.497 49.2529 256.221 49.5573 255.859 49.7754C255.501 49.9902 255.088 50.0977 254.619 50.0977C253.909 50.0977 253.338 49.8617 252.905 49.3896C252.472 48.9144 252.256 48.278 252.256 47.4805V47.041C252.256 45.931 252.461 45.0488 252.871 44.3945C253.284 43.7402 253.893 43.3415 254.697 43.1982C255.153 43.1169 255.46 43.0176 255.62 42.9004C255.779 42.7832 255.859 42.6221 255.859 42.417H256.601C256.601 42.8239 256.509 43.1413 256.323 43.3691C256.141 43.597 255.848 43.7581 255.444 43.8525L254.77 44.0039C254.233 44.1309 253.83 44.3457 253.559 44.6484C253.292 44.9479 253.118 45.3483 253.037 45.8496C253.515 45.2962 254.098 45.0195 254.785 45.0195ZM254.609 45.7617C254.166 45.7617 253.815 45.9115 253.554 46.2109C253.294 46.5072 253.164 46.9189 253.164 47.4463V47.5244C253.164 48.0908 253.294 48.54 253.554 48.8721C253.818 49.2008 254.173 49.3652 254.619 49.3652C255.068 49.3652 255.423 49.1992 255.683 48.8672C255.944 48.5352 256.074 48.0501 256.074 47.4121C256.074 46.9141 255.942 46.5153 255.679 46.2158C255.418 45.9131 255.062 45.7617 254.609 45.7617ZM262.488 47.417C262.488 48.221 262.304 48.8688 261.936 49.3604C261.568 49.8519 261.07 50.0977 260.442 50.0977C259.801 50.0977 259.296 49.8942 258.928 49.4873V52.0312H258.025V44.7168H258.85L258.894 45.3027C259.262 44.847 259.773 44.6191 260.427 44.6191C261.062 44.6191 261.563 44.8584 261.931 45.3369C262.302 45.8154 262.488 46.4811 262.488 47.334V47.417ZM261.585 47.3145C261.585 46.7188 261.458 46.2484 261.204 45.9033C260.95 45.5583 260.602 45.3857 260.159 45.3857C259.612 45.3857 259.202 45.6283 258.928 46.1133V48.6377C259.199 49.1195 259.612 49.3604 260.169 49.3604C260.602 49.3604 260.945 49.1895 261.199 48.8477C261.456 48.5026 261.585 47.9915 261.585 47.3145ZM267.022 50C266.97 49.8958 266.928 49.7103 266.895 49.4434C266.475 49.8796 265.974 50.0977 265.391 50.0977C264.87 50.0977 264.442 49.9512 264.107 49.6582C263.775 49.362 263.609 48.9876 263.609 48.5352C263.609 47.985 263.817 47.5586 264.234 47.2559C264.654 46.9499 265.243 46.7969 266.002 46.7969H266.88V46.3818C266.88 46.0661 266.786 45.8154 266.597 45.6299C266.408 45.4411 266.13 45.3467 265.762 45.3467C265.44 45.3467 265.17 45.4281 264.952 45.5908C264.734 45.7536 264.625 45.9505 264.625 46.1816H263.716C263.716 45.918 263.809 45.6641 263.995 45.4199C264.183 45.1725 264.437 44.9772 264.756 44.834C265.079 44.6908 265.432 44.6191 265.816 44.6191C266.425 44.6191 266.902 44.7721 267.247 45.0781C267.592 45.3809 267.771 45.7992 267.784 46.333V48.7646C267.784 49.2497 267.846 49.6354 267.969 49.9219V50H267.022ZM265.523 49.3115C265.806 49.3115 266.075 49.2383 266.329 49.0918C266.583 48.9453 266.766 48.7549 266.88 48.5205V47.4365H266.172C265.066 47.4365 264.512 47.7604 264.512 48.4082C264.512 48.6914 264.607 48.9128 264.795 49.0723C264.984 49.2318 265.227 49.3115 265.523 49.3115ZM273.636 50H272.733V47.7441H270.306V50H269.398V44.7168H270.306V47.0068H272.733V44.7168H273.636V50ZM279.528 50H278.624V47.7441H276.198V50H275.289V44.7168H276.198V47.0068H278.624V44.7168H279.528V50ZM280.863 47.3096C280.863 46.792 280.964 46.3265 281.166 45.9131C281.371 45.4997 281.654 45.1807 282.016 44.9561C282.38 44.7314 282.795 44.6191 283.261 44.6191C283.98 44.6191 284.561 44.8682 285.004 45.3662C285.45 45.8643 285.673 46.5267 285.673 47.3535V47.417C285.673 47.9313 285.574 48.3936 285.375 48.8037C285.18 49.2106 284.898 49.528 284.53 49.7559C284.166 49.9837 283.746 50.0977 283.271 50.0977C282.555 50.0977 281.974 49.8486 281.528 49.3506C281.085 48.8525 280.863 48.1934 280.863 47.373V47.3096ZM281.772 47.417C281.772 48.0029 281.907 48.4733 282.177 48.8281C282.45 49.1829 282.815 49.3604 283.271 49.3604C283.73 49.3604 284.094 49.1813 284.364 48.8232C284.635 48.4619 284.77 47.9574 284.77 47.3096C284.77 46.7301 284.631 46.2614 284.355 45.9033C284.081 45.542 283.717 45.3613 283.261 45.3613C282.815 45.3613 282.455 45.5387 282.182 45.8936C281.908 46.2484 281.772 46.7562 281.772 47.417ZM289.118 50.0977C288.402 50.0977 287.819 49.8633 287.37 49.3945C286.921 48.9225 286.696 48.2926 286.696 47.5049V47.3389C286.696 46.8148 286.796 46.3477 286.994 45.9375C287.196 45.5241 287.476 45.2018 287.834 44.9707C288.195 44.7363 288.586 44.6191 289.006 44.6191C289.693 44.6191 290.227 44.8454 290.607 45.2979C290.988 45.7503 291.179 46.3981 291.179 47.2412V47.6172H287.6C287.613 48.138 287.764 48.5596 288.054 48.8818C288.347 49.2008 288.718 49.3604 289.167 49.3604C289.486 49.3604 289.756 49.2952 289.978 49.165C290.199 49.0348 290.393 48.8623 290.559 48.6475L291.11 49.0771C290.668 49.7575 290.004 50.0977 289.118 50.0977ZM289.006 45.3613C288.641 45.3613 288.335 45.4948 288.088 45.7617C287.841 46.0254 287.688 46.3965 287.629 46.875H290.275V46.8066C290.249 46.3477 290.126 45.9928 289.904 45.7422C289.683 45.4883 289.384 45.3613 289.006 45.3613Z" fill="#007AFF"/>
<path fill-rule="evenodd" clip-rule="evenodd" d="M265 36C287.808 20.9717 272.437 8.36739 265 16.6087C257.563 8.36739 242.192 20.9717 265 36Z" fill="#007AFF"/>
<path d="M95.4325 46.8066H94.5683V50H93.6308V42.8906H94.5683V46.0254H95.3007L97.7861 42.8906H98.953L96.2382 46.3379L99.1532 50H98.0058L95.4325 46.8066ZM103.253 50C103.201 49.8958 103.158 49.7103 103.126 49.4434C102.706 49.8796 102.205 50.0977 101.622 50.0977C101.101 50.0977 100.673 49.9512 100.338 49.6582C100.006 49.362 99.8396 48.9876 99.8396 48.5352C99.8396 47.985 100.048 47.5586 100.465 47.2559C100.885 46.9499 101.474 46.7969 102.232 46.7969H103.111V46.3818C103.111 46.0661 103.017 45.8154 102.828 45.6299C102.639 45.4411 102.361 45.3467 101.993 45.3467C101.671 45.3467 101.401 45.4281 101.182 45.5908C100.964 45.7536 100.855 45.9505 100.855 46.1816H99.9471C99.9471 45.918 100.04 45.6641 100.225 45.4199C100.414 45.1725 100.668 44.9772 100.987 44.834C101.309 44.6908 101.663 44.6191 102.047 44.6191C102.655 44.6191 103.132 44.7721 103.477 45.0781C103.822 45.3809 104.001 45.7992 104.014 46.333V48.7646C104.014 49.2497 104.076 49.6354 104.2 49.9219V50H103.253ZM101.754 49.3115C102.037 49.3115 102.305 49.2383 102.559 49.0918C102.813 48.9453 102.997 48.7549 103.111 48.5205V47.4365H102.403C101.296 47.4365 100.743 47.7604 100.743 48.4082C100.743 48.6914 100.837 48.9128 101.026 49.0723C101.215 49.2318 101.457 49.3115 101.754 49.3115ZM109.398 45.4492H107.626V50H106.722V45.4492H104.984V44.7168H109.398V45.4492ZM113.581 50C113.529 49.8958 113.486 49.7103 113.454 49.4434C113.034 49.8796 112.532 50.0977 111.95 50.0977C111.429 50.0977 111.001 49.9512 110.666 49.6582C110.334 49.362 110.168 48.9876 110.168 48.5352C110.168 47.985 110.376 47.5586 110.793 47.2559C111.212 46.9499 111.802 46.7969 112.56 46.7969H113.439V46.3818C113.439 46.0661 113.345 45.8154 113.156 45.6299C112.967 45.4411 112.689 45.3467 112.321 45.3467C111.999 45.3467 111.728 45.4281 111.51 45.5908C111.292 45.7536 111.183 45.9505 111.183 46.1816H110.275C110.275 45.918 110.368 45.6641 110.553 45.4199C110.742 45.1725 110.996 44.9772 111.315 44.834C111.637 44.6908 111.99 44.6191 112.375 44.6191C112.983 44.6191 113.46 44.7721 113.805 45.0781C114.15 45.3809 114.329 45.7992 114.342 46.333V48.7646C114.342 49.2497 114.404 49.6354 114.528 49.9219V50H113.581ZM112.082 49.3115C112.365 49.3115 112.633 49.2383 112.887 49.0918C113.141 48.9453 113.325 48.7549 113.439 48.5205V47.4365H112.731C111.624 47.4365 111.071 47.7604 111.071 48.4082C111.071 48.6914 111.165 48.9128 111.354 49.0723C111.543 49.2318 111.785 49.3115 112.082 49.3115ZM120.209 44.7168V50H119.301V45.4639H117.504L117.397 47.4414C117.338 48.3496 117.185 48.999 116.938 49.3896C116.694 49.7803 116.305 49.9837 115.771 50H115.41V49.2041L115.668 49.1846C115.961 49.152 116.171 48.9827 116.298 48.6768C116.425 48.3708 116.507 47.8044 116.542 46.9775L116.64 44.7168H120.209ZM121.54 47.3096C121.54 46.792 121.641 46.3265 121.843 45.9131C122.048 45.4997 122.331 45.1807 122.693 44.9561C123.057 44.7314 123.472 44.6191 123.938 44.6191C124.657 44.6191 125.238 44.8682 125.681 45.3662C126.127 45.8643 126.35 46.5267 126.35 47.3535V47.417C126.35 47.9313 126.251 48.3936 126.052 48.8037C125.857 49.2106 125.575 49.528 125.207 49.7559C124.843 49.9837 124.423 50.0977 123.948 50.0977C123.231 50.0977 122.65 49.8486 122.204 49.3506C121.762 48.8525 121.54 48.1934 121.54 47.373V47.3096ZM122.449 47.417C122.449 48.0029 122.584 48.4733 122.854 48.8281C123.127 49.1829 123.492 49.3604 123.948 49.3604C124.407 49.3604 124.771 49.1813 125.041 48.8232C125.312 48.4619 125.447 47.9574 125.447 47.3096C125.447 46.7301 125.308 46.2614 125.032 45.9033C124.758 45.542 124.394 45.3613 123.938 45.3613C123.492 45.3613 123.132 45.5387 122.859 45.8936C122.585 46.2484 122.449 46.7562 122.449 47.417ZM131.016 45.4639H128.579V50H127.671V44.7168H131.016V45.4639Z" fill="#007AFF"/>
<path fill-rule="evenodd" clip-rule="evenodd" d="M120 12H104V13H120V12ZM103 14H121V15H103V14ZM102 16H122V36H102V16Z" fill="#007AFF"/>
<rect x="120" y="71" width="135" height="5" rx="2.5" fill="black"/>
<defs>
<filter id="filter0_bd" x="-27.1828" y="-26.1828" width="429.366" height="137.366" filterUnits="userSpaceOnUse" color-interpolation-filters="sRGB">
<feFlood flood-opacity="0" result="BackgroundImageFix"/>
<feGaussianBlur in="BackgroundImage" stdDeviation="13.5914"/>
<feComposite in2="SourceAlpha" operator="in" result="effect1_backgroundBlur"/>
<feColorMatrix in="SourceAlpha" type="matrix" values="0 0 0 0 0 0 0 0 0 0 0 0 0 0 0 0 0 0 127 0"/>
<feOffset dy="-0.5"/>
<feColorMatrix type="matrix" values="0 0 0 0 0 0 0 0 0 0 0 0 0 0 0 0 0 0 0.3 0"/>
<feBlend mode="normal" in2="effect1_backgroundBlur" result="effect2_dropShadow"/>
<feBlend mode="normal" in="SourceGraphic" in2="effect2_dropShadow" result="shape"/>
</filter>
</defs>
</svg>
