<svg width="53" height="42" viewBox="0 0 53 42" fill="none" xmlns="http://www.w3.org/2000/svg">
<path d="M10.9872 39H10.0448V32.6621H6.53898V39H5.60148V31.8906H10.9872V39ZM17.1375 36.417C17.1375 37.221 16.9536 37.8688 16.5857 38.3604C16.2179 38.8519 15.7199 39.0977 15.0916 39.0977C14.4503 39.0977 13.9458 38.8942 13.5779 38.4873V41.0312H12.6746V33.7168H13.4998L13.5437 34.3027C13.9116 33.847 14.4227 33.6191 15.077 33.6191C15.7117 33.6191 16.213 33.8584 16.5809 34.3369C16.952 34.8154 17.1375 35.4811 17.1375 36.334V36.417ZM16.2342 36.3145C16.2342 35.7188 16.1072 35.2484 15.8533 34.9033C15.5994 34.5583 15.2511 34.3857 14.8084 34.3857C14.2615 34.3857 13.8514 34.6283 13.5779 35.1133V37.6377C13.8481 38.1195 14.2615 38.3604 14.8182 38.3604C15.2511 38.3604 15.5945 38.1895 15.8484 37.8477C16.1056 37.5026 16.2342 36.9915 16.2342 36.3145ZM18.1706 36.3096C18.1706 35.792 18.2715 35.3265 18.4733 34.9131C18.6784 34.4997 18.9616 34.1807 19.3229 33.9561C19.6875 33.7314 20.1026 33.6191 20.568 33.6191C21.2874 33.6191 21.8685 33.8682 22.3112 34.3662C22.7572 34.8643 22.9802 35.5267 22.9802 36.3535V36.417C22.9802 36.9313 22.8809 37.3936 22.6823 37.8037C22.487 38.2106 22.2054 38.528 21.8376 38.7559C21.473 38.9837 21.0531 39.0977 20.5778 39.0977C19.8617 39.0977 19.2806 38.8486 18.8346 38.3506C18.3919 37.8525 18.1706 37.1934 18.1706 36.373V36.3096ZM19.0788 36.417C19.0788 37.0029 19.2139 37.4733 19.4841 37.8281C19.7575 38.1829 20.1221 38.3604 20.5778 38.3604C21.0368 38.3604 21.4014 38.1813 21.6716 37.8232C21.9417 37.4619 22.0768 36.9574 22.0768 36.3096C22.0768 35.7301 21.9385 35.2614 21.6618 34.9033C21.3884 34.542 21.0238 34.3613 20.568 34.3613C20.1221 34.3613 19.7624 34.5387 19.4889 34.8936C19.2155 35.2484 19.0788 35.7562 19.0788 36.417ZM24.0377 36.4561C24.0377 35.5739 24.2086 34.8805 24.5504 34.376C24.8921 33.8714 25.3609 33.6191 25.9566 33.6191C26.2333 33.6191 26.4758 33.6663 26.6841 33.7607V31.5H27.5875V33.79C27.8153 33.6761 28.0823 33.6191 28.3882 33.6191C28.9872 33.6191 29.4576 33.8714 29.7994 34.376C30.1412 34.8805 30.3121 35.6081 30.3121 36.5586C30.3121 37.3366 30.1412 37.9551 29.7994 38.4141C29.4608 38.873 28.9937 39.1025 28.398 39.1025C28.0823 39.1025 27.8121 39.0505 27.5875 38.9463V41.0312H26.6841V38.9609C26.4693 39.0553 26.2235 39.1025 25.9468 39.1025C25.3544 39.1025 24.8873 38.873 24.5455 38.4141C24.2069 37.9551 24.0377 37.3268 24.0377 36.5293V36.4561ZM29.4088 36.4561C29.4088 35.792 29.2948 35.2777 29.067 34.9131C28.8391 34.5452 28.525 34.3613 28.1246 34.3613C27.9195 34.3613 27.7405 34.3939 27.5875 34.459V38.2822C27.7339 38.3376 27.9162 38.3652 28.1343 38.3652C28.538 38.3652 28.8505 38.209 29.0718 37.8965C29.2964 37.584 29.4088 37.1038 29.4088 36.4561ZM24.941 36.5586C24.941 37.151 25.0468 37.6003 25.2584 37.9062C25.4699 38.2122 25.7743 38.3652 26.1714 38.3652C26.3602 38.3652 26.5311 38.3359 26.6841 38.2773V34.4443C26.5474 34.389 26.3798 34.3613 26.1812 34.3613C25.7841 34.3613 25.4781 34.5387 25.2632 34.8936C25.0484 35.2484 24.941 35.8034 24.941 36.5586ZM35.0268 33.7168H35.9301V39H35.0268V35.1475L32.5903 39H31.687V33.7168H32.5903V37.5742L35.0268 33.7168ZM41.8314 33.7168V39H40.9232V34.4639H39.1263L39.0189 36.4414C38.9603 37.3496 38.8073 37.999 38.5599 38.3896C38.3157 38.7803 37.9267 38.9837 37.3929 39H37.0316V38.2041L37.2904 38.1846C37.5833 38.152 37.7933 37.9827 37.9202 37.6768C38.0472 37.3708 38.1286 36.8044 38.1644 35.9775L38.262 33.7168H41.8314ZM44.3879 35.5381H45.76C46.3589 35.5446 46.8326 35.7008 47.1809 36.0068C47.5292 36.3128 47.7033 36.7279 47.7033 37.252C47.7033 37.7793 47.5243 38.2025 47.1662 38.5215C46.8081 38.8405 46.3264 39 45.7209 39H43.4846V33.7168H44.3879V35.5381ZM44.3879 36.2754V38.2627H45.7307C46.0692 38.2627 46.3313 38.1764 46.5168 38.0039C46.7023 37.8281 46.7951 37.5889 46.7951 37.2861C46.7951 36.9932 46.704 36.7539 46.5217 36.5684C46.3426 36.3796 46.0904 36.2819 45.7648 36.2754H44.3879Z" fill="#A3A3A3"/>
<path d="M26 13.5C29.7266 13.5 32.75 10.4766 32.75 6.75C32.75 3.02344 29.7266 0 26 0C22.2734 0 19.25 3.02344 19.25 6.75C19.25 10.4766 22.2734 13.5 26 13.5ZM32 15H29.4172C28.3766 15.4781 27.2188 15.75 26 15.75C24.7812 15.75 23.6281 15.4781 22.5828 15H20C16.6859 15 14 17.6859 14 21V21.75C14 22.9922 15.0078 24 16.25 24H35.75C36.9922 24 38 22.9922 38 21.75V21C38 17.6859 35.3141 15 32 15Z" fill="#A3A3A3"/>
</svg>
