<svg width="77" height="39" viewBox="0 0 77 39" fill="none" xmlns="http://www.w3.org/2000/svg">
<path d="M41.2735 0.129455C41.0229 0.168113 40.7821 1.09098 40.2979 1.57174C39.9438 1.91872 39.5017 1.89701 39.2669 2.32597C39.1778 2.48622 39.2067 2.75977 39.1055 3.02242C38.908 3.54772 38.2119 3.59468 38.2119 4.16703C38.2095 4.78513 38.7924 4.90318 39.297 5.34174C39.6909 5.69477 39.7295 5.93813 40.2063 6.1092C40.6135 6.24783 41.2193 5.79474 41.7648 5.95742C42.2129 6.09121 42.6416 6.18755 42.7429 6.64782C42.8319 7.07193 42.7368 7.72973 42.1936 7.65388C42.0105 7.63339 41.2168 7.36589 40.2413 7.4695C39.0646 7.60329 37.7216 7.98754 37.5904 9.29975C37.5181 10.0335 38.425 10.8986 39.3007 10.7227C39.9064 10.6033 39.6198 9.88897 39.9498 9.54191C40.3822 9.09738 42.8319 11.0938 45.1094 11.0938C46.0682 11.0938 46.7811 10.8516 47.4894 10.1094C47.5555 10.0528 47.6363 9.93109 47.7387 9.92382C47.835 9.93109 48.0036 10.0262 48.059 10.0672C49.8933 11.5419 51.2796 14.4999 58.0206 14.5349C58.9685 14.5396 60.0487 14.9927 60.9304 15.7975C61.7169 16.5253 62.177 17.6566 62.6238 18.8048C63.2982 20.5278 64.5075 22.2038 66.3405 24.0689C66.4405 24.1689 67.9496 25.3425 68.07 25.4304C68.0893 25.4425 68.2001 25.7075 68.1617 25.8557C68.1171 26.9738 67.9545 30.2257 70.3777 30.3727C70.9703 30.4028 70.8148 29.986 70.8148 29.6992C70.8137 29.1329 70.7101 28.5702 71.0088 27.9907C71.417 27.1931 70.1429 26.8256 70.1802 25.1015C70.2067 23.8159 69.1275 24.0351 68.5795 23.0556C68.2639 22.4881 67.9833 22.187 68.0038 21.4928C68.1267 17.5868 67.1728 15.0204 66.697 14.3903C66.3262 13.9144 66.019 13.7252 66.3586 13.5047C68.3808 12.1685 68.8397 10.925 68.8397 10.925C69.9151 8.39609 70.8824 6.08628 72.2156 5.06949C72.4842 4.85977 73.1731 4.34536 73.5959 4.1429C74.84 3.55611 75.4952 3.20075 75.8565 2.84885C76.4286 2.29103 76.8802 1.12834 76.3322 0.423499C75.6505 -0.44644 74.4714 0.243959 73.9512 0.55236C70.2332 2.75977 69.6852 6.65379 68.3976 8.89008C67.3703 10.6768 65.6998 11.989 64.2064 12.0962C63.0863 12.1793 61.8795 11.9528 60.6775 11.4251C57.7544 10.1431 56.1549 8.48767 55.778 8.19493C54.9927 7.58885 48.896 1.60184 43.9568 1.35726C43.9568 1.35726 43.3439 0.129541 43.1896 0.109045C42.8283 0.0632084 42.4586 0.842772 42.1936 0.933234C41.9443 1.01626 41.5252 0.0884617 41.2735 0.129455ZM19.5293 35.8621C19.0644 35.8512 18.6694 35.4693 18.6694 34.997L18.6706 19.5844H13.5928V36.5741C13.5928 37.4067 14.2672 38.0863 15.0947 38.0863H23.9699C24.8033 38.0863 25.4694 37.4067 25.4694 36.5741V19.5844H20.3965L20.3916 34.997C20.3916 35.4693 19.9966 35.8512 19.5293 35.8621ZM28.8453 19.5844C27.936 19.5844 27.1953 20.3242 27.1953 21.2435V38.0862H32.2777V22.6364C32.2813 22.1629 32.6643 21.7882 33.1365 21.7882C33.611 21.7882 33.9916 22.1544 34.0024 22.6232V38.0863H39.0645V22.623C39.0705 22.1543 39.4511 21.7881 39.9244 21.7881C40.3942 21.7881 40.782 22.1628 40.7856 22.6363V38.0863H45.8681V21.2435C45.8681 20.3242 45.1262 19.5844 44.2169 19.5844H28.8453ZM6.79759 22.6688C6.80122 22.1543 6.38211 21.7881 5.93767 21.7881H5.07533V31.1462H5.93767C6.38574 31.1462 6.80131 30.7896 6.79759 30.2776V22.6688ZM10.2049 33.4367H5.07533V38.0863H0V19.5844H10.2374C11.1539 19.5844 11.8693 20.329 11.8693 21.2508V31.7704C11.8693 32.6933 11.1262 33.4367 10.2049 33.4367ZM63.285 33.9487C62.2649 33.9487 61.4085 34.8307 61.4085 35.8995C61.4085 36.9718 62.2649 37.8465 63.3175 37.8465C64.3617 37.8465 65.2072 36.9718 65.2072 35.8995C65.2072 34.8283 64.3617 33.9487 63.3174 33.9487H63.285ZM65.5709 35.8934C65.5709 37.15 64.564 38.1718 63.3175 38.1718C62.0577 38.1718 61.046 37.1574 61.046 35.8934C61.046 34.6536 62.0577 33.6174 63.2802 33.6174C64.564 33.6174 65.5709 34.6224 65.5709 35.8934Z" fill="white"/>
<path d="M62.9905 35.7245C63.3432 35.7245 63.5286 35.5996 63.5286 35.35C63.5286 35.1278 63.3492 35.0138 63.0061 35.0138H62.905V35.7245H62.9905ZM64.2894 37.182H63.6839L62.905 36.1483V37.182H62.4103V34.5684H62.9303C63.637 34.5684 64.0125 34.8349 64.0125 35.3439C64.0125 35.6836 63.791 35.9851 63.4816 36.0751L63.4455 36.0883L64.2894 37.182ZM54.3019 31.1419V22.6528C54.2898 22.1833 53.9107 21.8232 53.4376 21.8232C52.9693 21.8232 52.5817 22.1977 52.5781 22.666V31.1419H54.3019ZM54.3019 38.0536V33.4254H52.5781V38.0536H47.508V21.2709C47.508 20.3549 48.2482 19.6177 49.1571 19.6177H57.7229C58.6342 19.6177 59.3745 20.3549 59.3745 21.2709V38.0536L54.3019 38.0536Z" fill="white"/>
</svg>
