<svg width="77" height="49" viewBox="0 0 77 49" fill="none" xmlns="http://www.w3.org/2000/svg">
<path fill-rule="evenodd" clip-rule="evenodd" d="M32.5248 17.5254L37.175 9.59355L37.7823 0.00137672L36.7401 0L23.8606 21.9637L24.4048 22.891L32.5248 17.5254ZM33.626 19.3843L24.8856 23.706L25.4253 24.6363L51.0884 24.6831L51.6067 23.7954L42.8447 19.3928L33.626 19.3843ZM39.867 0.00550269L38.7486 0.00137672L39.3014 9.59492L43.92 17.5537L52.0834 22.9831L52.6576 22.0146L39.867 0.00550269Z" fill="#D01931"/>
<path fill-rule="evenodd" clip-rule="evenodd" d="M63.4649 40.1424L63.4626 42.904C63.4566 46.1339 61.2415 47.9443 58.1504 48.0318H57.4819C54.3885 47.9037 52.1949 46.0958 52.2007 42.8862V40.1246C52.2114 36.8875 54.4268 35.0915 57.532 35.0029C57.6889 35.0005 57.9933 35.0029 58.1467 35.0029C61.2628 35.1024 63.4733 36.9305 63.4649 40.1424ZM57.6186 37.6828C56.4001 37.7498 55.2296 38.3789 55.2248 40.1364V42.904C55.2199 44.5945 56.388 45.2751 57.6076 45.3493C57.6698 45.3565 57.9766 45.3565 58.0437 45.3528C59.2394 45.2857 60.4242 44.6365 60.4265 42.9112L60.43 40.1424C60.4361 38.404 59.2498 37.7535 58.0351 37.6828C57.8854 37.6721 57.7582 37.6721 57.6181 37.6828" fill="#2B2C2B"/>
<path fill-rule="evenodd" clip-rule="evenodd" d="M68.1209 40.4789C68.1209 40.4789 72.6616 35.3117 72.9324 35.0242L76.7278 35.0337L71.2106 41.2671L76.9997 47.6876L73.154 47.6816L68.1163 42.0795L68.1068 47.6732L65.0531 47.6672L65.0818 31.9284L68.1332 31.9333L68.1212 40.4791L68.1209 40.4789Z" fill="#2B2C2B"/>
<path fill-rule="evenodd" clip-rule="evenodd" d="M24.943 42.3186L24.9491 40.0914C24.9574 36.8555 22.6968 35.0439 19.5997 34.9386L19.0164 34.9351C15.8991 35.0321 13.6826 36.8339 13.6802 40.0675L13.6742 42.8147C13.6682 45.896 15.9624 47.8095 18.9277 47.964C19.2428 47.97 19.4069 47.9617 19.619 47.964C23.3317 47.97 24.7203 46.0891 24.8904 43.9373L22.0965 43.9301C22.0223 44.3374 21.8844 45.3823 19.5447 45.3797C19.1338 45.3748 18.5648 45.2744 18.1562 45.14C16.4214 44.559 16.6982 42.4181 16.6982 42.3007L24.9433 42.3186H24.943ZM16.6957 39.8614C16.6957 38.1974 17.8014 37.5491 19.1122 37.4976C19.2524 37.4941 19.3948 37.4904 19.5183 37.4999C20.847 37.5549 21.9587 38.2571 21.9552 39.8733V40.0877L16.691 40.0828L16.6959 39.8612L16.6957 39.8614Z" fill="#2B2C2B"/>
<path fill-rule="evenodd" clip-rule="evenodd" d="M37.7365 42.3377L37.7414 40.1154C37.7497 36.8795 35.4866 35.0679 32.3874 34.9577H31.8087C28.6865 35.0535 26.4642 36.8565 26.4593 40.0889L26.4558 42.8384C26.4498 45.9137 28.7417 47.8355 31.7117 47.9877C32.0351 47.9938 32.192 47.9877 32.4067 47.9877C36.1254 47.9938 37.5045 46.1079 37.6757 43.9622L34.8974 43.9515C34.8065 44.3602 34.6805 45.4037 32.3264 45.4C31.9191 45.3965 31.356 45.2946 30.9534 45.1591C29.203 44.5815 29.4905 42.4395 29.4882 42.3244L37.7367 42.3377H37.7365ZM29.4796 39.8877C29.4845 38.2188 30.5951 37.5696 31.8962 37.5204C32.0328 37.5155 32.1813 37.5181 32.3094 37.5239C33.6332 37.5765 34.7464 38.2799 34.7427 39.8935V40.1091L29.4759 40.1019L29.4794 39.8875L29.4796 39.8877Z" fill="#2B2C2B"/>
<path fill-rule="evenodd" clip-rule="evenodd" d="M45.3359 35.0043C43.9209 35.0008 42.9519 35.3865 42.4186 35.8429L42.4221 31.8881L39.3911 31.8833L39.3661 47.622H39.8956C39.8956 47.622 41.2422 46.8683 41.3153 46.8433C41.5107 47.0505 42.838 48.0246 44.6734 48.0246C44.9071 48.0269 45.1227 48.045 45.3503 48.0306C48.4173 47.9671 50.6398 46.0634 50.647 42.9029L50.6493 40.1569C50.6553 37.0658 48.4282 35.0064 45.3359 35.0041V35.0043ZM47.6135 42.9136C47.6123 44.6363 46.4154 45.2846 45.2245 45.3623C45.1624 45.3623 44.8458 45.36 44.7897 45.3563C43.5724 45.2749 42.4043 44.604 42.4043 42.9087L42.4115 40.1425C42.4138 38.3789 43.5868 37.7608 44.8004 37.6805C44.9466 37.6698 45.0784 37.6649 45.2269 37.6816C46.4298 37.7642 47.6195 38.3993 47.6169 40.1508L47.6135 42.9136Z" fill="#2B2C2B"/>
<path fill-rule="evenodd" clip-rule="evenodd" d="M13.2911 47.5748L7.46491 41.0755C7.75474 41.0922 8.04248 41.1042 8.33717 41.1042C10.339 41.1066 12.831 39.844 12.8347 36.6378C12.8454 32.7933 9.6538 31.8312 6.82516 31.8289L0.0322544 31.8122L0 47.5498L3.07786 47.557V40.5327L9.39159 47.5676L13.2914 47.5748H13.2911ZM3.09688 34.5088L6.78804 34.5195C8.49288 34.5195 10.0012 35.0599 10.0012 36.6807C9.9963 38.3065 9.05466 38.8887 6.77968 38.878L3.08737 38.8757L3.09688 34.5088Z" fill="#2B2C2B"/>
</svg>
