<svg width="270" height="16" viewBox="0 0 270 16" fill="none" xmlns="http://www.w3.org/2000/svg">
<path d="M24.2617 6.71973C24.2617 6.19108 24.068 5.77181 23.6807 5.46191C23.2979 5.14746 22.7578 4.99023 22.0605 4.99023C21.4772 4.99023 20.9873 5.15202 20.5908 5.47559C20.1989 5.7946 20.0029 6.19108 20.0029 6.66504H18.6904C18.6904 6.13639 18.834 5.66243 19.1211 5.24316C19.4128 4.82389 19.8184 4.49805 20.3379 4.26562C20.8574 4.02865 21.4316 3.91016 22.0605 3.91016C23.1725 3.91016 24.0361 4.16081 24.6514 4.66211C25.2666 5.15885 25.5742 5.85156 25.5742 6.74023C25.5742 7.20052 25.4329 7.61979 25.1504 7.99805C24.8678 8.3763 24.4736 8.6748 23.9678 8.89355C25.139 9.28548 25.7246 10.0625 25.7246 11.2246C25.7246 12.1178 25.3919 12.8265 24.7266 13.3506C24.0612 13.8747 23.1725 14.1367 22.0605 14.1367C21.3997 14.1367 20.7982 14.0205 20.2559 13.7881C19.7181 13.5511 19.2988 13.2161 18.998 12.7832C18.6973 12.3503 18.5469 11.8353 18.5469 11.2383H19.8594C19.8594 11.7624 20.0667 12.1999 20.4814 12.5508C20.8962 12.8971 21.4225 13.0703 22.0605 13.0703C22.776 13.0703 23.3457 12.904 23.7695 12.5713C24.1979 12.2386 24.4121 11.7988 24.4121 11.252C24.4121 10.0853 23.6898 9.49056 22.2451 9.46777H21.0146V8.3877H22.2383C22.9036 8.37402 23.4072 8.22363 23.749 7.93652C24.0908 7.64941 24.2617 7.24382 24.2617 6.71973ZM31.8359 14C31.763 13.8542 31.7038 13.5944 31.6582 13.2207C31.0703 13.8314 30.3685 14.1367 29.5527 14.1367C28.8236 14.1367 28.2243 13.9316 27.7549 13.5215C27.29 13.1068 27.0576 12.5827 27.0576 11.9492C27.0576 11.179 27.3493 10.582 27.9326 10.1582C28.5205 9.72982 29.3454 9.51562 30.4072 9.51562H31.6377V8.93457C31.6377 8.49251 31.5055 8.1416 31.2412 7.88184C30.9769 7.61751 30.5872 7.48535 30.0723 7.48535C29.6211 7.48535 29.2428 7.59928 28.9375 7.82715C28.6322 8.05501 28.4795 8.33073 28.4795 8.6543H27.208C27.208 8.28516 27.3379 7.92969 27.5977 7.58789C27.862 7.24154 28.2174 6.9681 28.6641 6.76758C29.1152 6.56706 29.6097 6.4668 30.1475 6.4668C30.9997 6.4668 31.6673 6.68099 32.1504 7.10938C32.6335 7.5332 32.8841 8.11882 32.9023 8.86621V12.2705C32.9023 12.9495 32.9889 13.4896 33.1621 13.8906V14H31.8359ZM29.7373 13.0361C30.1338 13.0361 30.5098 12.9336 30.8652 12.7285C31.2207 12.5234 31.4782 12.2568 31.6377 11.9287V10.4111H30.6465C29.097 10.4111 28.3223 10.8646 28.3223 11.7715C28.3223 12.168 28.4544 12.4779 28.7188 12.7012C28.9831 12.9245 29.3226 13.0361 29.7373 13.0361ZM40.9346 14H39.6699V7.64941H36.2656V14H34.9941V6.60352H40.9346V14ZM42.6299 10.2334C42.6299 9.50879 42.7712 8.8571 43.0537 8.27832C43.3408 7.69954 43.7373 7.25293 44.2432 6.93848C44.7536 6.62402 45.3346 6.4668 45.9863 6.4668C46.9935 6.4668 47.807 6.81543 48.4268 7.5127C49.0511 8.20996 49.3633 9.13737 49.3633 10.2949V10.3838C49.3633 11.1038 49.2243 11.751 48.9463 12.3252C48.6729 12.8949 48.2786 13.3392 47.7637 13.6582C47.2533 13.9772 46.6654 14.1367 46 14.1367C44.9974 14.1367 44.1839 13.7881 43.5596 13.0908C42.9398 12.3936 42.6299 11.4707 42.6299 10.3223V10.2334ZM43.9014 10.3838C43.9014 11.2041 44.0905 11.8626 44.4688 12.3594C44.8516 12.8561 45.362 13.1045 46 13.1045C46.6426 13.1045 47.153 12.8538 47.5312 12.3525C47.9095 11.8467 48.0986 11.1403 48.0986 10.2334C48.0986 9.4222 47.9049 8.76595 47.5176 8.26465C47.1348 7.75879 46.6243 7.50586 45.9863 7.50586C45.362 7.50586 44.8584 7.75423 44.4756 8.25098C44.0928 8.74772 43.9014 9.45866 43.9014 10.3838ZM55.208 12.3252L57.7236 6.60352H59.3027V14H58.0381V8.62012L55.6455 14H54.7705L52.3301 8.50391V14H51.0654V6.60352H52.7061L55.208 12.3252ZM67.3828 14H66.1182V10.8418H62.7207V14H61.4492V6.60352H62.7207V9.80957H66.1182V6.60352H67.3828V14ZM74.2051 6.60352H75.4697V14H74.2051V8.60645L70.7939 14H69.5293V6.60352H70.7939V12.0039L74.2051 6.60352ZM82.9961 7.62891H80.5146V14H79.25V7.62891H76.8164V6.60352H82.9961V7.62891ZM85.6074 9.15332H87.5283C88.3669 9.16243 89.0299 9.38118 89.5176 9.80957C90.0052 10.238 90.249 10.819 90.249 11.5527C90.249 12.291 89.9984 12.8835 89.4971 13.3301C88.9958 13.7767 88.3213 14 87.4736 14H84.3428V6.60352H85.6074V9.15332ZM85.6074 10.1855V12.9678H87.4873C87.9613 12.9678 88.3281 12.847 88.5879 12.6055C88.8477 12.3594 88.9775 12.0244 88.9775 11.6006C88.9775 11.1904 88.8499 10.8555 88.5947 10.5957C88.3441 10.3314 87.9909 10.1947 87.5352 10.1855H85.6074ZM99.5596 12.3252L102.075 6.60352H103.654V14H102.39V8.62012L99.9971 14H99.1221L96.6816 8.50391V14H95.417V6.60352H97.0576L99.5596 12.3252ZM108.761 14.1367C107.758 14.1367 106.942 13.8086 106.313 13.1523C105.685 12.4915 105.37 11.6097 105.37 10.5068V10.2744C105.37 9.54069 105.509 8.88672 105.787 8.3125C106.07 7.73372 106.462 7.28255 106.963 6.95898C107.469 6.63086 108.016 6.4668 108.604 6.4668C109.565 6.4668 110.312 6.78353 110.846 7.41699C111.379 8.05046 111.646 8.95736 111.646 10.1377V10.6641H106.635C106.653 11.3932 106.865 11.9834 107.271 12.4346C107.681 12.8812 108.2 13.1045 108.829 13.1045C109.276 13.1045 109.654 13.0133 109.964 12.8311C110.274 12.6488 110.545 12.4072 110.777 12.1064L111.55 12.708C110.93 13.6605 110 14.1367 108.761 14.1367ZM108.604 7.50586C108.093 7.50586 107.665 7.69271 107.318 8.06641C106.972 8.43555 106.758 8.95508 106.676 9.625H110.381V9.5293C110.344 8.88672 110.171 8.38997 109.861 8.03906C109.551 7.68359 109.132 7.50586 108.604 7.50586ZM119.158 14H117.894V10.8418H114.496V14H113.225V6.60352H114.496V9.80957H117.894V6.60352H119.158V14ZM126.849 6.60352V14H125.577V11.1221H123.67L121.927 14H120.56L122.419 10.9307C121.945 10.7575 121.58 10.4909 121.325 10.1309C121.075 9.76628 120.949 9.34245 120.949 8.85938C120.949 8.1849 121.202 7.64258 121.708 7.23242C122.214 6.81771 122.891 6.60807 123.738 6.60352H126.849ZM122.221 8.87305C122.221 9.23307 122.344 9.52474 122.59 9.74805C122.836 9.9668 123.162 10.0785 123.567 10.083H125.577V7.62891H123.759C123.289 7.62891 122.916 7.74512 122.638 7.97754C122.36 8.2054 122.221 8.50391 122.221 8.87305Z" fill="#8A8A8F"/>
<circle cx="7" cy="9" r="6.5" stroke="#8A8A8F"/>
<path d="M165.262 6.71973C165.262 6.19108 165.068 5.77181 164.681 5.46191C164.298 5.14746 163.758 4.99023 163.061 4.99023C162.477 4.99023 161.987 5.15202 161.591 5.47559C161.199 5.7946 161.003 6.19108 161.003 6.66504H159.69C159.69 6.13639 159.834 5.66243 160.121 5.24316C160.413 4.82389 160.818 4.49805 161.338 4.26562C161.857 4.02865 162.432 3.91016 163.061 3.91016C164.173 3.91016 165.036 4.16081 165.651 4.66211C166.267 5.15885 166.574 5.85156 166.574 6.74023C166.574 7.20052 166.433 7.61979 166.15 7.99805C165.868 8.3763 165.474 8.6748 164.968 8.89355C166.139 9.28548 166.725 10.0625 166.725 11.2246C166.725 12.1178 166.392 12.8265 165.727 13.3506C165.061 13.8747 164.173 14.1367 163.061 14.1367C162.4 14.1367 161.798 14.0205 161.256 13.7881C160.718 13.5511 160.299 13.2161 159.998 12.7832C159.697 12.3503 159.547 11.8353 159.547 11.2383H160.859C160.859 11.7624 161.067 12.1999 161.481 12.5508C161.896 12.8971 162.423 13.0703 163.061 13.0703C163.776 13.0703 164.346 12.904 164.77 12.5713C165.198 12.2386 165.412 11.7988 165.412 11.252C165.412 10.0853 164.69 9.49056 163.245 9.46777H162.015V8.3877H163.238C163.904 8.37402 164.407 8.22363 164.749 7.93652C165.091 7.64941 165.262 7.24382 165.262 6.71973ZM172.836 14C172.763 13.8542 172.704 13.5944 172.658 13.2207C172.07 13.8314 171.368 14.1367 170.553 14.1367C169.824 14.1367 169.224 13.9316 168.755 13.5215C168.29 13.1068 168.058 12.5827 168.058 11.9492C168.058 11.179 168.349 10.582 168.933 10.1582C169.521 9.72982 170.345 9.51562 171.407 9.51562H172.638V8.93457C172.638 8.49251 172.506 8.1416 172.241 7.88184C171.977 7.61751 171.587 7.48535 171.072 7.48535C170.621 7.48535 170.243 7.59928 169.938 7.82715C169.632 8.05501 169.479 8.33073 169.479 8.6543H168.208C168.208 8.28516 168.338 7.92969 168.598 7.58789C168.862 7.24154 169.217 6.9681 169.664 6.76758C170.115 6.56706 170.61 6.4668 171.147 6.4668C172 6.4668 172.667 6.68099 173.15 7.10938C173.633 7.5332 173.884 8.11882 173.902 8.86621V12.2705C173.902 12.9495 173.989 13.4896 174.162 13.8906V14H172.836ZM170.737 13.0361C171.134 13.0361 171.51 12.9336 171.865 12.7285C172.221 12.5234 172.478 12.2568 172.638 11.9287V10.4111H171.646C170.097 10.4111 169.322 10.8646 169.322 11.7715C169.322 12.168 169.454 12.4779 169.719 12.7012C169.983 12.9245 170.323 13.0361 170.737 13.0361ZM181.935 14H180.67V7.64941H177.266V14H175.994V6.60352H181.935V14ZM183.63 10.2334C183.63 9.50879 183.771 8.8571 184.054 8.27832C184.341 7.69954 184.737 7.25293 185.243 6.93848C185.754 6.62402 186.335 6.4668 186.986 6.4668C187.993 6.4668 188.807 6.81543 189.427 7.5127C190.051 8.20996 190.363 9.13737 190.363 10.2949V10.3838C190.363 11.1038 190.224 11.751 189.946 12.3252C189.673 12.8949 189.279 13.3392 188.764 13.6582C188.253 13.9772 187.665 14.1367 187 14.1367C185.997 14.1367 185.184 13.7881 184.56 13.0908C183.94 12.3936 183.63 11.4707 183.63 10.3223V10.2334ZM184.901 10.3838C184.901 11.2041 185.09 11.8626 185.469 12.3594C185.852 12.8561 186.362 13.1045 187 13.1045C187.643 13.1045 188.153 12.8538 188.531 12.3525C188.91 11.8467 189.099 11.1403 189.099 10.2334C189.099 9.4222 188.905 8.76595 188.518 8.26465C188.135 7.75879 187.624 7.50586 186.986 7.50586C186.362 7.50586 185.858 7.75423 185.476 8.25098C185.093 8.74772 184.901 9.45866 184.901 10.3838ZM196.208 12.3252L198.724 6.60352H200.303V14H199.038V8.62012L196.646 14H195.771L193.33 8.50391V14H192.065V6.60352H193.706L196.208 12.3252ZM208.383 14H207.118V10.8418H203.721V14H202.449V6.60352H203.721V9.80957H207.118V6.60352H208.383V14ZM215.205 6.60352H216.47V14H215.205V8.60645L211.794 14H210.529V6.60352H211.794V12.0039L215.205 6.60352ZM223.996 7.62891H221.515V14H220.25V7.62891H217.816V6.60352H223.996V7.62891ZM226.607 9.15332H228.528C229.367 9.16243 230.03 9.38118 230.518 9.80957C231.005 10.238 231.249 10.819 231.249 11.5527C231.249 12.291 230.998 12.8835 230.497 13.3301C229.996 13.7767 229.321 14 228.474 14H225.343V6.60352H226.607V9.15332ZM226.607 10.1855V12.9678H228.487C228.961 12.9678 229.328 12.847 229.588 12.6055C229.848 12.3594 229.978 12.0244 229.978 11.6006C229.978 11.1904 229.85 10.8555 229.595 10.5957C229.344 10.3314 228.991 10.1947 228.535 10.1855H226.607ZM240.56 12.3252L243.075 6.60352H244.654V14H243.39V8.62012L240.997 14H240.122L237.682 8.50391V14H236.417V6.60352H238.058L240.56 12.3252ZM249.761 14.1367C248.758 14.1367 247.942 13.8086 247.313 13.1523C246.685 12.4915 246.37 11.6097 246.37 10.5068V10.2744C246.37 9.54069 246.509 8.88672 246.787 8.3125C247.07 7.73372 247.462 7.28255 247.963 6.95898C248.469 6.63086 249.016 6.4668 249.604 6.4668C250.565 6.4668 251.312 6.78353 251.846 7.41699C252.379 8.05046 252.646 8.95736 252.646 10.1377V10.6641H247.635C247.653 11.3932 247.865 11.9834 248.271 12.4346C248.681 12.8812 249.2 13.1045 249.829 13.1045C250.276 13.1045 250.654 13.0133 250.964 12.8311C251.274 12.6488 251.545 12.4072 251.777 12.1064L252.55 12.708C251.93 13.6605 251 14.1367 249.761 14.1367ZM249.604 7.50586C249.093 7.50586 248.665 7.69271 248.318 8.06641C247.972 8.43555 247.758 8.95508 247.676 9.625H251.381V9.5293C251.344 8.88672 251.171 8.38997 250.861 8.03906C250.551 7.68359 250.132 7.50586 249.604 7.50586ZM260.158 14H258.894V10.8418H255.496V14H254.225V6.60352H255.496V9.80957H258.894V6.60352H260.158V14ZM267.849 6.60352V14H266.577V11.1221H264.67L262.927 14H261.56L263.419 10.9307C262.945 10.7575 262.58 10.4909 262.325 10.1309C262.075 9.76628 261.949 9.34245 261.949 8.85938C261.949 8.1849 262.202 7.64258 262.708 7.23242C263.214 6.81771 263.891 6.60807 264.738 6.60352H267.849ZM263.221 8.87305C263.221 9.23307 263.344 9.52474 263.59 9.74805C263.836 9.9668 264.162 10.0785 264.567 10.083H266.577V7.62891H264.759C264.289 7.62891 263.916 7.74512 263.638 7.97754C263.36 8.2054 263.221 8.50391 263.221 8.87305Z" fill="#8A8A8F"/>
<circle cx="148" cy="9" r="6.5" stroke="#8A8A8F"/>
<circle cx="148" cy="9" r="5" fill="#8A8A8F"/>
</svg>
