<svg width="16" height="16" viewBox="0 0 16 16" fill="none" xmlns="http://www.w3.org/2000/svg">
<path fill-rule="evenodd" clip-rule="evenodd" d="M11.3793 10.4299C12.2727 9.32965 12.808 7.9273 12.808 6.4C12.808 2.86538 9.94084 0 6.404 0C2.86717 0 0 2.86538 0 6.4C0 9.93462 2.86717 12.8 6.404 12.8C7.83555 12.8 9.15739 12.3306 10.2238 11.5374L14.2289 15.751C14.5333 16.0713 15.04 16.0843 15.3606 15.78C15.6811 15.4757 15.6941 14.9694 15.3896 14.649L11.3793 10.4299ZM6.40398 11.2C3.75135 11.2 1.60098 9.05097 1.60098 6.4C1.60098 3.74903 3.75135 1.6 6.40398 1.6C9.0566 1.6 11.207 3.74903 11.207 6.4C11.207 9.05097 9.0566 11.2 6.40398 11.2Z" fill="#8A8A8F"/>
</svg>
