<svg width="375" height="45" viewBox="0 0 375 45" fill="none" xmlns="http://www.w3.org/2000/svg">
<g filter="url(#filter0_d)">
<path fill-rule="evenodd" clip-rule="evenodd" d="M0 1H375V45H0V1Z" fill="white"/>
<path fill-rule="evenodd" clip-rule="evenodd" d="M8 13C8 10.2386 10.2386 8 13 8H362C364.761 8 367 10.2386 367 13V33C367 35.7614 364.761 38 362 38H13C10.2386 38 8 35.7614 8 33V13Z" fill="#F0F2F7"/>
<path d="M72.4039 23.5254H71.3903V27H69.6325V23.5254H68.5954L66.7379 27H64.5465L67.2067 22.4238L64.6754 18.4688H66.861L68.7594 21.9082H69.6325V18.4688H71.3903V21.9082H72.2457L74.0973 18.4688H76.277L73.7926 22.418L76.4118 27H74.2145L72.4039 23.5254ZM79.9835 27.1172C79.0538 27.1172 78.296 26.832 77.7101 26.2617C77.128 25.6914 76.837 24.9316 76.837 23.9824V23.8184C76.837 23.1816 76.9601 22.6133 77.2062 22.1133C77.4522 21.6094 77.7999 21.2227 78.2491 20.9531C78.7022 20.6797 79.2179 20.543 79.796 20.543C80.6632 20.543 81.3448 20.8164 81.8409 21.3633C82.3409 21.9102 82.5909 22.6855 82.5909 23.6895V24.3809H78.5538C78.6085 24.7949 78.7726 25.127 79.046 25.377C79.3233 25.627 79.6729 25.752 80.0948 25.752C80.7472 25.752 81.2569 25.5156 81.6241 25.043L82.4562 25.9746C82.2022 26.334 81.8585 26.6152 81.4249 26.8184C80.9913 27.0176 80.5108 27.1172 79.9835 27.1172ZM79.7901 21.9141C79.4542 21.9141 79.1808 22.0273 78.9698 22.2539C78.7628 22.4805 78.63 22.8047 78.5714 23.2266H80.9269V23.0918C80.919 22.7168 80.8175 22.4277 80.6222 22.2246C80.4269 22.0176 80.1495 21.9141 79.7901 21.9141ZM89.1978 27H87.4986V24.5625H85.3951V27H83.7017V20.6602H85.3951V23.2031H87.4986V20.6602H89.1978V27ZM92.3301 20.6602V25.6348H94.0703V20.6602H95.7695V25.6348H97.5039V20.6602H99.2031V25.6465H100.463L100.346 28.8809H98.7695V27H90.6367V20.6602H92.3301ZM105.423 20.6602H107.117V27H105.423V23.0859L103.302 27H101.603V20.6602H103.302V24.5684L105.423 20.6602ZM114.052 27H112.352V24.5625H110.249V27H108.556V20.6602H110.249V23.2031H112.352V20.6602H114.052V27ZM119.182 27C119.104 26.8477 119.047 26.6582 119.012 26.4316C118.602 26.8887 118.069 27.1172 117.412 27.1172C116.791 27.1172 116.276 26.9375 115.866 26.5781C115.459 26.2188 115.256 25.7656 115.256 25.2188C115.256 24.5469 115.504 24.0312 116 23.6719C116.5 23.3125 117.221 23.1309 118.162 23.127H118.942V22.7637C118.942 22.4707 118.866 22.2363 118.713 22.0605C118.565 21.8848 118.328 21.7969 118.004 21.7969C117.719 21.7969 117.495 21.8652 117.33 22.002C117.17 22.1387 117.09 22.3262 117.09 22.5645H115.397C115.397 22.1973 115.51 21.8574 115.737 21.5449C115.963 21.2324 116.284 20.9883 116.698 20.8125C117.112 20.6328 117.577 20.543 118.092 20.543C118.873 20.543 119.493 20.7402 119.95 21.1348C120.411 21.5254 120.641 22.0762 120.641 22.7871V25.5352C120.645 26.1367 120.729 26.5918 120.893 26.9004V27H119.182ZM117.782 25.8223C118.032 25.8223 118.262 25.7676 118.473 25.6582C118.684 25.5449 118.84 25.3945 118.942 25.207V24.1172H118.309C117.461 24.1172 117.01 24.4102 116.955 24.9961L116.95 25.0957C116.95 25.3066 117.024 25.4805 117.172 25.6172C117.321 25.7539 117.524 25.8223 117.782 25.8223ZM125.947 25.002L127.605 20.6602H129.726V27H128.033V23.1094L126.515 27H125.379L123.89 23.1738V27H122.197V20.6602H124.301L125.947 25.002Z" fill="#A3A3A3"/>
<g filter="url(#filter1_d)">
<rect x="190" y="10" width="175" height="26" rx="5" fill="white"/>
</g>
<path d="M249.232 18.4688L251.423 24.6562L253.603 18.4688H255.912V27H254.148V24.668L254.324 20.6426L252.021 27H250.814L248.517 20.6484L248.693 24.668V27H246.935V18.4688H249.232ZM259.847 24.6035L261.019 20.6602H262.835L260.286 27.9844L260.146 28.3184C259.767 29.1465 259.142 29.5605 258.271 29.5605C258.025 29.5605 257.775 29.5234 257.521 29.4492V28.166L257.778 28.1719C258.099 28.1719 258.337 28.123 258.493 28.0254C258.653 27.9277 258.778 27.7656 258.868 27.5391L259.067 27.0176L256.847 20.6602H258.669L259.847 24.6035ZM269.747 24.6504H268.979V27H267.286V24.6504H266.53L265.27 27H263.225L265.223 23.6836L263.249 20.6602H265.346L266.665 23.0273H267.286V20.6602H268.979V23.0273H269.612L270.936 20.6602H273.034L271.071 23.6426L273.086 27H271.006L269.747 24.6504ZM279.389 27H277.695V25.0078C277.379 25.0664 277.084 25.0957 276.811 25.0957C275.854 25.0957 275.133 24.8926 274.648 24.4863C274.164 24.0801 273.918 23.4863 273.91 22.7051V20.6602H275.604V22.7051C275.607 23.0723 275.697 23.3359 275.873 23.4961C276.049 23.6523 276.361 23.7305 276.811 23.7305C277.092 23.7305 277.387 23.6973 277.695 23.6309V20.6602H279.389V27ZM284.654 20.6602H286.347V27H284.654V23.0859L282.533 27H280.833V20.6602H282.533V24.5684L284.654 20.6602ZM293.282 27H291.583V24.5625H289.479V27H287.786V20.6602H289.479V23.2031H291.583V20.6602H293.282V27ZM298.412 27C298.334 26.8477 298.278 26.6582 298.243 26.4316C297.832 26.8887 297.299 27.1172 296.643 27.1172C296.022 27.1172 295.506 26.9375 295.096 26.5781C294.69 26.2188 294.487 25.7656 294.487 25.2188C294.487 24.5469 294.735 24.0312 295.231 23.6719C295.731 23.3125 296.452 23.1309 297.393 23.127H298.172V22.7637C298.172 22.4707 298.096 22.2363 297.944 22.0605C297.795 21.8848 297.559 21.7969 297.235 21.7969C296.95 21.7969 296.725 21.8652 296.561 22.002C296.401 22.1387 296.321 22.3262 296.321 22.5645H294.627C294.627 22.1973 294.741 21.8574 294.967 21.5449C295.194 21.2324 295.514 20.9883 295.928 20.8125C296.342 20.6328 296.807 20.543 297.323 20.543C298.104 20.543 298.723 20.7402 299.18 21.1348C299.641 21.5254 299.871 22.0762 299.871 22.7871V25.5352C299.875 26.1367 299.959 26.5918 300.123 26.9004V27H298.412ZM297.012 25.8223C297.262 25.8223 297.493 25.7676 297.703 25.6582C297.914 25.5449 298.071 25.3945 298.172 25.207V24.1172H297.539C296.692 24.1172 296.241 24.4102 296.186 24.9961L296.18 25.0957C296.18 25.3066 296.254 25.4805 296.403 25.6172C296.551 25.7539 296.754 25.8223 297.012 25.8223ZM305.178 25.002L306.836 20.6602H308.957V27H307.264V23.1094L305.746 27H304.609L303.121 23.1738V27H301.428V20.6602H303.531L305.178 25.002Z" fill="black"/>
<rect x="187" y="15" width="1" height="16" fill="#8A8A8F"/>
</g>
<defs>
<filter id="filter0_d" x="0" y="0.5" width="375" height="44.5" filterUnits="userSpaceOnUse" color-interpolation-filters="sRGB">
<feFlood flood-opacity="0" result="BackgroundImageFix"/>
<feColorMatrix in="SourceAlpha" type="matrix" values="0 0 0 0 0 0 0 0 0 0 0 0 0 0 0 0 0 0 127 0"/>
<feOffset dy="-0.5"/>
<feColorMatrix type="matrix" values="0 0 0 0 0 0 0 0 0 0 0 0 0 0 0 0 0 0 0.3 0"/>
<feBlend mode="normal" in2="BackgroundImageFix" result="effect1_dropShadow"/>
<feBlend mode="normal" in="SourceGraphic" in2="effect1_dropShadow" result="shape"/>
</filter>
<filter id="filter1_d" x="188" y="9" width="179" height="30" filterUnits="userSpaceOnUse" color-interpolation-filters="sRGB">
<feFlood flood-opacity="0" result="BackgroundImageFix"/>
<feColorMatrix in="SourceAlpha" type="matrix" values="0 0 0 0 0 0 0 0 0 0 0 0 0 0 0 0 0 0 127 0"/>
<feOffset dy="1"/>
<feGaussianBlur stdDeviation="1"/>
<feColorMatrix type="matrix" values="0 0 0 0 0 0 0 0 0 0 0 0 0 0 0 0 0 0 0.25 0"/>
<feBlend mode="normal" in2="BackgroundImageFix" result="effect1_dropShadow"/>
<feBlend mode="normal" in="SourceGraphic" in2="effect1_dropShadow" result="shape"/>
</filter>
</defs>
</svg>
