<svg width="30" height="30" viewBox="0 0 30 30" fill="none" xmlns="http://www.w3.org/2000/svg">
<circle cx="15" cy="15" r="15" fill="white"/>
<path d="M18.375 17.25C17.5802 17.25 16.8497 17.5249 16.273 17.9846L12.67 15.7327C12.7767 15.25 12.7767 14.7499 12.67 14.2673L16.273 12.0154C16.8497 12.4751 17.5802 12.75 18.375 12.75C20.2389 12.75 21.75 11.2389 21.75 9.375C21.75 7.51105 20.2389 6 18.375 6C16.5111 6 15 7.51105 15 9.375C15 9.62665 15.0278 9.87176 15.08 10.1077L11.477 12.3596C10.9003 11.8999 10.1698 11.625 9.375 11.625C7.51105 11.625 6 13.1361 6 15C6 16.8639 7.51105 18.375 9.375 18.375C10.1698 18.375 10.9003 18.1001 11.477 17.6404L15.08 19.8923C15.0268 20.1329 14.9999 20.3786 15 20.625C15 22.4889 16.5111 24 18.375 24C20.2389 24 21.75 22.4889 21.75 20.625C21.75 18.7611 20.2389 17.25 18.375 17.25Z" fill="#93AFFF"/>
</svg>
