<svg width="31" height="12" viewBox="0 0 31 12" fill="none" xmlns="http://www.w3.org/2000/svg">
<path d="M3.99741 11.2563C6.68539 11.2563 8.28207 9.1543 8.28207 5.59473C8.28207 4.25439 8.02573 3.12646 7.535 2.25488C6.82455 0.899902 5.60141 0.16748 4.056 0.16748C1.7562 0.16748 0.130219 1.71289 0.130219 3.88086C0.130219 5.91699 1.59506 7.39648 3.60922 7.39648C4.84702 7.39648 5.85043 6.81787 6.34848 5.81445H6.37045C6.37045 5.81445 6.39975 5.81445 6.40707 5.81445C6.42172 5.81445 6.47299 5.81445 6.47299 5.81445C6.47299 8.23145 5.55746 9.67432 4.01205 9.67432C3.10385 9.67432 2.40073 9.17627 2.15903 8.37793H0.276703C0.591644 10.1138 2.06381 11.2563 3.99741 11.2563ZM4.06332 5.89502C2.8475 5.89502 1.98325 5.03076 1.98325 3.82227C1.98325 2.64307 2.89145 1.74219 4.07065 1.74219C5.24985 1.74219 6.15805 2.65771 6.15805 3.85156C6.15805 5.03076 5.27182 5.89502 4.06332 5.89502ZM11.2666 9.87939C11.9624 9.87939 12.4385 9.38135 12.4385 8.72217C12.4385 8.05566 11.9624 7.56494 11.2666 7.56494C10.5781 7.56494 10.0947 8.05566 10.0947 8.72217C10.0947 9.38135 10.5781 9.87939 11.2666 9.87939ZM11.2666 4.38623C11.9624 4.38623 12.4385 3.89551 12.4385 3.23633C12.4385 2.56982 11.9624 2.0791 11.2666 2.0791C10.5781 2.0791 10.0947 2.56982 10.0947 3.23633C10.0947 3.89551 10.5781 4.38623 11.2666 4.38623ZM14.4636 3.52197V3.55127H16.236V3.52197C16.236 2.44531 16.9831 1.72021 18.089 1.72021C19.1291 1.72021 19.8908 2.39404 19.8908 3.32422C19.8908 4.07129 19.5319 4.62061 18.089 6.08545L14.5661 9.68896V11H21.905V9.396H17.1589V9.27148L19.3708 7.05225C21.1652 5.27979 21.7438 4.34229 21.7438 3.20703C21.7438 1.44189 20.235 0.16748 18.1476 0.16748C15.9797 0.16748 14.4636 1.54443 14.4636 3.52197ZM24.1424 11H26.12L30.639 2.04248V0.431152H23.2855V2.02051H28.7347V2.1377L24.1424 11Z" fill="black"/>
</svg>
