<svg width="77" height="26" viewBox="0 0 77 26" fill="none" xmlns="http://www.w3.org/2000/svg">
<path d="M75.2308 12.696H70.7678C70.3239 11.6258 69.8554 10.7746 67.365 10.7746C65.6389 10.7746 64.8992 11.4799 64.8992 12.1852C64.8992 12.9635 65.5157 13.5959 67.4143 14.0094L71.4582 15.0795C74.0965 15.7848 75.3788 17.8522 75.3788 20.0168C75.3788 21.2329 75.1075 22.6922 73.9486 23.9083C73.0856 24.8082 71.7541 26 67.365 26C61.3485 26 59.3512 22.2544 59.3512 19.9682H64.0362C64.5047 21.6221 65.6389 22.2544 67.9321 22.2544C69.5102 22.2544 70.8664 21.695 70.8664 20.5033C70.8664 19.3602 69.8801 18.9467 68.6225 18.6062L65.4417 17.7549C63.9129 17.2928 62.6307 16.928 61.7184 16.174C59.3512 14.1796 59.5238 10.6043 62.0882 8.75585C63.5184 7.73433 64.9732 7.19925 67.3157 7.19925C70.0527 7.19925 71.6061 7.97755 72.839 8.80449C73.8993 9.4855 75.2061 11.2853 75.2308 12.696ZM0 0C0.0493155 0.145931 9.32063 25.7811 9.32063 25.7811H14.8686L23.4002 4.45089H76.4144L76.8089 0H19.3317L12.2549 17.6819L5.8932 0H0ZM45.8388 16.5631L52.7676 25.7811H57.1074V7.53976H52.1265V17.4631L45.8634 7.56408H41.0798V25.7811H45.8634V16.5631H45.8388ZM76.9815 24.8326C76.9815 24.2975 76.5377 23.8597 75.9952 23.8597C75.4527 23.8597 75.0089 24.2975 75.0089 24.8326C75.0089 25.3676 75.4527 25.8054 75.9952 25.8054C76.5377 25.8054 77.0062 25.3676 76.9815 24.8326C77.0062 24.8326 77.0062 24.8326 76.9815 24.8326ZM76.8829 24.8326C76.8829 25.2947 76.4883 25.6838 76.0199 25.6838C75.5514 25.6838 75.1568 25.2947 75.1568 24.8326C75.1568 24.3704 75.5514 23.9813 76.0199 23.9813C76.4883 23.957 76.8829 24.3218 76.8829 24.8326C76.8829 24.8082 76.8829 24.8082 76.8829 24.8326ZM76.4637 24.6137C76.4637 24.4191 76.2911 24.2732 76.1185 24.2732C76.0938 24.2732 76.0938 24.2732 76.0692 24.2732H75.6007V25.2947H75.8226V24.9542H75.9952L76.2171 25.2947H76.4884L76.2418 24.9298C76.3897 24.9055 76.4883 24.7596 76.4637 24.6137ZM76.2418 24.638C76.2418 24.7109 76.1678 24.7839 76.0938 24.7839H76.0692H75.8472V24.4921H76.0692C76.1431 24.4677 76.2418 24.5164 76.2664 24.5893C76.2418 24.6137 76.2664 24.6137 76.2418 24.638ZM19.455 25.7811H24.781L25.7674 22.9355H32.7948L33.8058 25.7811H39.0332L32.3263 7.56408H26.6797L19.455 25.7811ZM27.2468 19.6277L29.3181 13.5716L31.34 19.6277H27.2468Z" fill="white"/>
</svg>
